
<!-- Generator: visioncortex VTracer 0.6.4 -->
<svg version="1.1" xmlns="http://www.w3.org/2000/svg" viewBox="0 0 582 429" preserveAspectRatio="xMidYMid meet">
<path d="M0 0 C1.944 0.92 3.926 1.759 5.926 2.551 C10.335 4.427 14.151 7.08 18.07 9.809 C18.802 10.303 19.533 10.797 20.287 11.307 C20.977 11.783 21.668 12.259 22.379 12.75 C23.005 13.181 23.63 13.613 24.275 14.057 C24.723 14.449 25.171 14.842 25.633 15.246 C25.633 15.906 25.633 16.566 25.633 17.246 C26.468 17.586 26.468 17.586 27.32 17.934 C30.285 19.616 32.286 21.782 34.633 24.246 C35.396 24.968 36.159 25.69 36.945 26.434 C38.633 28.246 38.633 28.246 38.633 30.246 C39.623 30.576 40.613 30.906 41.633 31.246 C56.757 45.608 67.128 74.026 67.727 94.447 C67.767 98.13 67.769 101.812 67.758 105.496 C67.762 106.762 67.766 108.028 67.77 109.332 C67.768 111.153 67.768 111.153 67.766 113.012 C67.764 114.113 67.763 115.214 67.762 116.349 C67.651 118.83 67.355 120.883 66.633 123.246 C67.788 123.04 68.943 122.834 70.133 122.621 C74.784 122.103 79.254 122.452 83.883 122.996 C84.568 123.07 85.253 123.144 85.959 123.22 C89.03 123.619 91.352 124.069 93.991 125.73 C96.966 127.437 99.179 127.854 102.57 128.273 C103.714 128.426 104.857 128.579 106.035 128.736 C108.402 129.031 110.77 129.325 113.137 129.619 C124.917 131.192 137.125 133.627 146.633 141.246 C146.963 142.236 147.293 143.226 147.633 144.246 C148.293 144.246 148.953 144.246 149.633 144.246 C151.726 147.648 151.812 150.299 151.633 154.246 C150.973 154.246 150.313 154.246 149.633 154.246 C149.963 155.236 150.293 156.226 150.633 157.246 C149.127 161.508 146.688 165.913 143.633 169.246 C142.973 169.246 142.313 169.246 141.633 169.246 C141.26 170.126 141.26 170.126 140.879 171.023 C135.29 180.992 120.244 186.96 110.633 192.246 C109.545 192.848 108.457 193.45 107.336 194.07 C101.587 197.096 95.668 199.469 89.57 201.684 C88.831 201.955 88.091 202.227 87.33 202.507 C81.997 204.368 81.997 204.368 78.633 203.246 C79.268 202.969 79.903 202.693 80.557 202.407 C83.462 201.135 86.36 199.847 89.258 198.559 C90.756 197.906 90.756 197.906 92.285 197.24 C97.82 194.766 102.147 192.308 106.633 188.246 C108.906 186.875 108.906 186.875 111.008 185.809 C119.073 181.439 124.816 176.232 130.75 169.223 C131.371 168.57 131.993 167.918 132.633 167.246 C133.293 167.246 133.953 167.246 134.633 167.246 C136.522 161.692 136.522 161.692 135.695 156.059 C131.255 150.003 125.206 147.316 118.258 145.121 C117.468 144.87 116.679 144.618 115.865 144.359 C98.759 139.092 82.481 138.861 64.633 139.246 C64.186 140.213 63.738 141.18 63.277 142.176 C61.701 145.576 60.112 148.97 58.517 152.362 C57.796 153.898 57.083 155.437 56.371 156.977 C53.949 162.049 51.135 166.814 48.133 171.559 C47.581 172.439 47.581 172.439 47.018 173.338 C44.579 177.113 41.865 180.141 38.633 183.246 C36.531 185.628 34.464 188.036 32.402 190.453 C31.818 191.045 31.234 191.636 30.633 192.246 C29.973 192.246 29.313 192.246 28.633 192.246 C28.633 192.906 28.633 193.566 28.633 194.246 C23.871 198.715 18.392 202.144 12.641 205.18 C10.972 206.066 9.356 207.051 7.758 208.059 C5.633 209.246 5.633 209.246 2.633 209.246 C1.887 204.389 1.615 200.076 2.633 195.246 C7.058 190.24 12.622 187.105 18.633 184.246 C18.633 183.586 18.633 182.926 18.633 182.246 C19.953 181.916 21.273 181.586 22.633 181.246 C22.633 180.586 22.633 179.926 22.633 179.246 C24.508 177.121 24.508 177.121 26.633 175.246 C27.293 175.246 27.953 175.246 28.633 175.246 C28.911 174.674 29.19 174.101 29.477 173.512 C30.616 171.28 31.832 169.137 33.133 166.996 C33.556 166.29 33.978 165.583 34.414 164.855 C34.816 164.324 35.218 163.793 35.633 163.246 C36.293 163.246 36.953 163.246 37.633 163.246 C37.889 162.568 38.146 161.89 38.41 161.191 C39.84 157.747 41.501 154.441 43.195 151.121 C45.665 146.295 45.665 146.295 47.633 141.246 C40.703 142.236 40.703 142.236 33.633 143.246 C32.973 145.556 32.313 147.866 31.633 150.246 C25.693 150.246 19.753 150.246 13.633 150.246 C13.303 148.596 12.973 146.946 12.633 145.246 C11.808 145.597 10.983 145.947 10.133 146.309 C5.801 147.469 3.042 146.897 -1.367 146.246 C-1.365 146.892 -1.363 147.537 -1.36 148.202 C-1.338 154.984 -1.323 161.766 -1.312 168.548 C-1.307 171.072 -1.3 173.595 -1.292 176.119 C-1.201 203.033 -1.201 203.033 -2.367 214.246 C-3.532 214.692 -3.532 214.692 -4.72 215.147 C-5.615 215.489 -6.509 215.831 -7.43 216.184 C-11.962 217.918 -15.368 218.532 -20.367 219.246 C-20.697 195.816 -21.027 172.386 -21.367 148.246 C-24.007 148.906 -26.647 149.566 -29.367 150.246 C-31.413 150.611 -33.464 150.946 -35.52 151.246 C-36.626 151.411 -37.733 151.576 -38.873 151.746 C-40.005 151.911 -41.138 152.076 -42.305 152.246 C-52.253 153.685 -52.253 153.685 -62.076 155.781 C-65.472 156.47 -68.929 156.816 -72.367 157.246 C-72.367 177.706 -72.367 198.166 -72.367 219.246 C-82.367 217.246 -82.367 217.246 -90.367 213.246 C-90.697 196.416 -91.027 179.586 -91.367 162.246 C-97.802 164.226 -97.802 164.226 -104.367 166.246 C-108.918 166.637 -108.918 166.637 -112.68 166.496 C-113.955 166.46 -115.229 166.424 -116.543 166.387 C-117.475 166.34 -118.407 166.294 -119.367 166.246 C-119.037 165.256 -118.707 164.266 -118.367 163.246 C-115.727 161.926 -113.087 160.606 -110.367 159.246 C-117.297 160.896 -124.227 162.546 -131.367 164.246 C-124.378 175.326 -114.893 186.001 -102.68 191.371 C-100.762 192.453 -100.762 192.453 -99.367 194.246 C-98.684 199.333 -98.905 204.148 -99.367 209.246 C-107.171 207.615 -115.224 202.198 -121.367 197.246 C-121.367 196.586 -121.367 195.926 -121.367 195.246 C-122.172 194.906 -122.172 194.906 -122.992 194.559 C-127.55 192.04 -131.605 188.697 -134.367 184.246 C-134.367 183.586 -134.367 182.926 -134.367 182.246 C-135.357 181.916 -136.347 181.586 -137.367 181.246 C-139.374 178.712 -141.22 176.124 -143.051 173.463 C-144.089 172.007 -145.223 170.62 -146.367 169.246 C-154.427 169.246 -162.416 172.886 -169.921 175.505 C-171.862 176.182 -173.804 176.854 -175.746 177.525 C-192.854 183.461 -209.444 190.019 -225.546 198.32 C-228.255 199.698 -231.003 200.993 -233.742 202.309 C-240.085 205.471 -246.33 209.209 -251.367 214.246 C-252.687 214.246 -254.007 214.246 -255.367 214.246 C-252.463 204.38 -239.088 198.187 -230.499 193.499 C-229.124 192.762 -227.747 192.031 -226.367 191.303 C-224.481 190.307 -222.612 189.284 -220.742 188.258 C-199.078 176.642 -174.671 169.855 -151.367 162.246 C-153 157.183 -154.715 152.242 -156.867 147.371 C-168.636 119.38 -166.519 88.018 -155.367 60.246 C-151.272 50.658 -146.401 41.039 -139.367 33.246 C-138.707 33.246 -138.047 33.246 -137.367 33.246 C-137.094 32.658 -136.821 32.07 -136.539 31.465 C-127.718 14.764 -107.148 3.663 -90.367 -2.754 C-89.311 -3.187 -88.256 -3.62 -87.168 -4.066 C-59.169 -14.993 -26.966 -12.891 0 0 Z M-57.344 3.322 C-74.005 4.075 -89.605 9.818 -103.367 19.246 C-104.098 19.684 -104.829 20.123 -105.582 20.574 C-120.001 29.691 -131.744 43.1 -139.367 58.246 C-139.937 59.357 -140.507 60.468 -141.094 61.613 C-149.945 79.795 -150.677 96.451 -150.367 116.246 C-150.362 117.365 -150.357 118.484 -150.352 119.637 C-149.8 133.749 -143.499 147.304 -136.367 159.246 C-123.397 156.793 -123.397 156.793 -112.367 150.246 C-117.977 150.246 -123.587 150.246 -129.367 150.246 C-129.362 147.451 -129.357 144.656 -129.351 141.776 C-129.335 132.516 -129.324 123.256 -129.315 113.996 C-129.31 108.385 -129.303 102.773 -129.292 97.162 C-129.281 91.741 -129.275 86.321 -129.272 80.9 C-129.27 78.837 -129.267 76.775 -129.261 74.712 C-129.254 71.811 -129.253 68.911 -129.254 66.01 C-129.25 65.167 -129.246 64.324 -129.243 63.456 C-129.253 57.668 -129.698 51.994 -130.367 46.246 C-126.353 47.622 -123.644 49.589 -120.367 52.246 C-119.707 52.246 -119.047 52.246 -118.367 52.246 C-118.367 52.906 -118.367 53.566 -118.367 54.246 C-116.632 55.691 -114.827 57.055 -112.992 58.371 C-111.994 59.096 -110.997 59.82 -109.969 60.566 C-107.603 62.427 -107.603 62.427 -105.367 62.246 C-105.037 63.236 -104.707 64.226 -104.367 65.246 C-102.609 66.809 -102.609 66.809 -100.492 68.246 C-98.454 69.69 -96.569 71.042 -94.812 72.82 C-92.894 74.713 -90.626 75.781 -88.277 77.062 C-85.525 78.768 -83.219 80.882 -80.848 83.074 C-79.421 84.453 -79.421 84.453 -77.367 84.246 C-77.037 85.236 -76.707 86.226 -76.367 87.246 C-75.707 87.246 -75.047 87.246 -74.367 87.246 C-74.367 87.906 -74.367 88.566 -74.367 89.246 C-72.416 90.7 -70.465 92.044 -68.43 93.371 C-63.396 96.737 -58.895 100.329 -54.445 104.449 C-51.316 107.155 -47.938 109.169 -44.367 111.246 C-40.079 108.523 -36.406 105.603 -32.68 102.121 C-29.961 99.587 -27.461 97.309 -24.367 95.246 C-24.367 94.586 -24.367 93.926 -24.367 93.246 C-23.545 92.885 -23.545 92.885 -22.707 92.516 C-19.819 90.949 -17.463 89.024 -14.93 86.934 C-14.003 86.174 -13.076 85.415 -12.121 84.633 C-9.318 82.263 -9.318 82.263 -6.695 79.559 C-4.402 77.281 -2.119 75.897 0.633 74.246 C0.633 73.586 0.633 72.926 0.633 72.246 C1.172 72.027 1.71 71.808 2.266 71.582 C5.436 69.793 7.896 67.371 10.508 64.871 C13.539 61.971 16.462 59.271 20.016 57.02 C20.879 56.434 21.743 55.849 22.633 55.246 C22.633 54.586 22.633 53.926 22.633 53.246 C23.231 52.978 23.829 52.71 24.445 52.434 C26.676 51.357 26.676 51.357 28.258 49.621 C28.712 49.167 29.165 48.714 29.633 48.246 C30.293 48.246 30.953 48.246 31.633 48.246 C31.648 49.652 31.648 49.652 31.664 51.087 C31.762 59.901 31.864 68.716 31.972 77.531 C32.027 82.063 32.081 86.595 32.13 91.127 C32.178 95.497 32.23 99.867 32.286 104.238 C32.306 105.909 32.325 107.58 32.342 109.251 C32.366 111.583 32.396 113.915 32.427 116.248 C32.433 116.946 32.439 117.643 32.445 118.362 C32.227 121.584 32.227 121.584 33.633 124.246 C35.671 124.373 37.715 124.422 39.758 124.434 C40.874 124.448 41.99 124.462 43.141 124.477 C46.88 124.23 50.054 123.321 53.633 122.246 C54.506 96.326 54.506 96.326 48.633 71.246 C48.237 70.117 47.841 68.988 47.434 67.824 C42.081 53.812 32.333 40.69 21.633 30.246 C20.973 30.246 20.313 30.246 19.633 30.246 C19.303 29.256 18.973 28.266 18.633 27.246 C15.997 24.836 15.997 24.836 12.633 24.246 C12.633 23.586 12.633 22.926 12.633 22.246 C-0.952 14.377 -0.952 14.377 -15.367 8.246 C-15.937 8.008 -16.507 7.771 -17.094 7.526 C-22.234 5.433 -27.042 4.547 -32.555 4.059 C-33.809 3.94 -33.809 3.94 -35.088 3.819 C-42.558 3.155 -49.851 3.034 -57.344 3.322 Z M-111.367 83.246 C-111.367 105.356 -111.367 127.466 -111.367 150.246 C-103.926 149.491 -103.926 149.491 -96.93 147.809 C-96.106 147.562 -95.282 147.316 -94.434 147.062 C-92.191 146.335 -92.191 146.335 -90.367 144.246 C-90.192 141.377 -90.136 138.606 -90.172 135.738 C-90.175 134.898 -90.178 134.057 -90.18 133.191 C-90.192 130.501 -90.217 127.811 -90.242 125.121 C-90.252 123.299 -90.261 121.478 -90.27 119.656 C-90.292 115.186 -90.326 110.716 -90.367 106.246 C-88.467 107.468 -86.572 108.699 -84.68 109.934 C-83.624 110.618 -82.568 111.303 -81.48 112.008 C-73.806 117.526 -73.806 117.526 -72.708 121.833 C-72.692 122.729 -72.676 123.624 -72.66 124.547 C-72.631 125.523 -72.602 126.5 -72.572 127.506 C-72.566 128.513 -72.561 129.521 -72.555 130.559 C-72.53 131.585 -72.504 132.612 -72.479 133.67 C-72.42 136.196 -72.383 138.72 -72.367 141.246 C-63.952 140.696 -55.433 139.814 -47.367 137.246 C-46.707 136.256 -46.047 135.266 -45.367 134.246 C-45.898 133.848 -46.429 133.449 -46.977 133.039 C-53.367 128.246 -53.367 128.246 -55.508 126.547 C-57.262 125.055 -57.262 125.055 -59.367 125.246 C-59.697 124.256 -60.027 123.266 -60.367 122.246 C-61.027 122.246 -61.687 122.246 -62.367 122.246 C-62.367 121.586 -62.367 120.926 -62.367 120.246 C-64.369 118.575 -64.369 118.575 -66.992 116.809 C-71.482 113.624 -75.862 110.348 -80.18 106.934 C-81.049 106.249 -81.049 106.249 -81.935 105.55 C-85.066 103.077 -88.186 100.591 -91.301 98.098 C-91.94 97.589 -92.579 97.08 -93.237 96.556 C-94.47 95.574 -95.699 94.589 -96.925 93.598 C-99.793 91.058 -99.793 91.058 -103.367 90.246 C-103.367 89.586 -103.367 88.926 -103.367 88.246 C-106.007 86.596 -108.647 84.946 -111.367 83.246 Z M5.633 93.246 C4.973 93.576 4.313 93.906 3.633 94.246 C3.633 94.906 3.633 95.566 3.633 96.246 C3.076 96.473 2.519 96.7 1.945 96.934 C-1.004 98.608 -2.971 100.846 -5.367 103.246 C-7.119 104.728 -8.89 106.186 -10.68 107.621 C-16.126 112.032 -21.42 116.576 -26.613 121.281 C-30.108 124.434 -33.544 127.458 -37.43 130.121 C-38.399 130.822 -39.368 131.524 -40.367 132.246 C-40.367 132.906 -40.367 133.566 -40.367 134.246 C-33.502 134.51 -27.109 133.505 -20.367 132.246 C-20.367 130.266 -20.367 128.286 -20.367 126.246 C-19.826 126.019 -19.284 125.792 -18.727 125.559 C-15.625 123.833 -13.24 121.633 -10.617 119.246 C-10.111 118.795 -9.604 118.344 -9.082 117.879 C-7.802 116.712 -6.579 115.483 -5.367 114.246 C-5.367 113.586 -5.367 112.926 -5.367 112.246 C-4.377 112.246 -3.387 112.246 -2.367 112.246 C-2.367 117.526 -2.367 122.806 -2.367 128.246 C2.583 127.916 7.533 127.586 12.633 127.246 C12.633 114.376 12.633 101.506 12.633 88.246 C10.3 88.246 7.336 91.821 5.633 93.246 Z M-97.367 155.246 C-93.367 156.246 -93.367 156.246 -93.367 156.246 Z M-101.367 156.246 C-97.367 157.246 -97.367 157.246 -97.367 157.246 Z " fill="#0171BC" transform="translate(359.3671875,76.75390625)"/>
<path d="M0 0 C1.944 0.92 3.926 1.759 5.926 2.551 C10.335 4.427 14.151 7.08 18.07 9.809 C18.802 10.303 19.533 10.797 20.287 11.307 C20.977 11.783 21.668 12.259 22.379 12.75 C23.005 13.181 23.63 13.613 24.275 14.057 C24.723 14.449 25.171 14.842 25.633 15.246 C25.633 15.906 25.633 16.566 25.633 17.246 C26.468 17.586 26.468 17.586 27.32 17.934 C30.285 19.616 32.286 21.782 34.633 24.246 C35.396 24.968 36.159 25.69 36.945 26.434 C38.633 28.246 38.633 28.246 38.633 30.246 C39.623 30.576 40.613 30.906 41.633 31.246 C56.757 45.608 67.128 74.026 67.727 94.447 C67.767 98.13 67.769 101.812 67.758 105.496 C67.762 106.762 67.766 108.028 67.77 109.332 C67.768 111.153 67.768 111.153 67.766 113.012 C67.764 114.113 67.763 115.214 67.762 116.349 C67.651 118.83 67.355 120.883 66.633 123.246 C67.788 123.04 68.943 122.834 70.133 122.621 C74.784 122.103 79.254 122.452 83.883 122.996 C84.568 123.07 85.253 123.144 85.959 123.22 C89.03 123.619 91.352 124.069 93.991 125.73 C96.966 127.437 99.179 127.854 102.57 128.273 C103.714 128.426 104.857 128.579 106.035 128.736 C108.402 129.031 110.77 129.325 113.137 129.619 C124.917 131.192 137.125 133.627 146.633 141.246 C146.963 142.236 147.293 143.226 147.633 144.246 C148.293 144.246 148.953 144.246 149.633 144.246 C151.726 147.648 151.812 150.299 151.633 154.246 C150.973 154.246 150.313 154.246 149.633 154.246 C149.963 155.236 150.293 156.226 150.633 157.246 C149.127 161.508 146.688 165.913 143.633 169.246 C142.973 169.246 142.313 169.246 141.633 169.246 C141.26 170.126 141.26 170.126 140.879 171.023 C135.29 180.992 120.244 186.96 110.633 192.246 C109.545 192.848 108.457 193.45 107.336 194.07 C101.587 197.096 95.668 199.469 89.57 201.684 C88.831 201.955 88.091 202.227 87.33 202.507 C81.997 204.368 81.997 204.368 78.633 203.246 C79.268 202.969 79.903 202.693 80.557 202.407 C83.462 201.135 86.36 199.847 89.258 198.559 C90.756 197.906 90.756 197.906 92.285 197.24 C97.82 194.766 102.147 192.308 106.633 188.246 C108.906 186.875 108.906 186.875 111.008 185.809 C119.073 181.439 124.816 176.232 130.75 169.223 C131.371 168.57 131.993 167.918 132.633 167.246 C133.293 167.246 133.953 167.246 134.633 167.246 C136.522 161.692 136.522 161.692 135.695 156.059 C131.255 150.003 125.206 147.316 118.258 145.121 C117.468 144.87 116.679 144.618 115.865 144.359 C98.759 139.092 82.481 138.861 64.633 139.246 C64.186 140.213 63.738 141.18 63.277 142.176 C61.701 145.576 60.112 148.97 58.517 152.362 C57.796 153.898 57.083 155.437 56.371 156.977 C53.949 162.049 51.135 166.814 48.133 171.559 C47.581 172.439 47.581 172.439 47.018 173.338 C44.579 177.113 41.865 180.141 38.633 183.246 C36.531 185.628 34.464 188.036 32.402 190.453 C31.818 191.045 31.234 191.636 30.633 192.246 C29.973 192.246 29.313 192.246 28.633 192.246 C28.633 192.906 28.633 193.566 28.633 194.246 C23.871 198.715 18.392 202.144 12.641 205.18 C10.972 206.066 9.356 207.051 7.758 208.059 C5.633 209.246 5.633 209.246 2.633 209.246 C1.887 204.389 1.615 200.076 2.633 195.246 C7.058 190.24 12.622 187.105 18.633 184.246 C18.633 183.586 18.633 182.926 18.633 182.246 C19.953 181.916 21.273 181.586 22.633 181.246 C22.633 180.586 22.633 179.926 22.633 179.246 C24.508 177.121 24.508 177.121 26.633 175.246 C27.293 175.246 27.953 175.246 28.633 175.246 C28.911 174.674 29.19 174.101 29.477 173.512 C30.616 171.28 31.832 169.137 33.133 166.996 C33.556 166.29 33.978 165.583 34.414 164.855 C34.816 164.324 35.218 163.793 35.633 163.246 C36.293 163.246 36.953 163.246 37.633 163.246 C38.016 162.235 38.016 162.235 38.406 161.203 C39.862 157.695 41.542 154.319 43.258 150.934 C43.745 149.966 43.745 149.966 44.242 148.979 C45.037 147.4 45.835 145.823 46.633 144.246 C47.293 144.246 47.953 144.246 48.633 144.246 C48.754 143.689 48.875 143.132 49 142.559 C49.168 141.795 49.335 141.032 49.508 140.246 C49.751 139.132 49.751 139.132 50 137.996 C50.495 135.846 51.059 133.713 51.649 131.587 C52.702 127.368 52.97 123.374 53.004 119.039 C53.015 118.28 53.026 117.521 53.037 116.739 C53.064 114.303 53.071 111.869 53.07 109.434 C53.072 108.604 53.073 107.775 53.075 106.92 C53.057 94.356 52.186 83.073 47.633 71.246 C47.039 69.562 47.039 69.562 46.434 67.844 C40.298 51.679 28.389 35.709 14.32 25.656 C13.485 24.958 13.485 24.958 12.633 24.246 C12.633 23.586 12.633 22.926 12.633 22.246 C11.849 22.04 11.065 21.834 10.258 21.621 C6.205 20.084 2.817 18.02 -0.867 15.762 C-17.478 5.691 -36.191 3.26 -55.367 4.246 C-56.346 4.284 -56.346 4.284 -57.344 4.322 C-74 5.075 -89.611 10.814 -103.367 20.246 C-104.481 20.921 -104.481 20.921 -105.617 21.609 C-119.693 30.569 -130.913 43.431 -138.367 58.246 C-138.938 59.359 -139.509 60.471 -140.098 61.617 C-148.939 79.803 -149.677 96.45 -149.367 116.246 C-149.359 117.924 -149.359 117.924 -149.352 119.637 C-148.865 132.076 -143.825 144.716 -137.469 155.277 C-136.367 157.246 -136.367 157.246 -136.367 159.246 C-135.707 159.246 -135.047 159.246 -134.367 159.246 C-134.367 159.906 -134.367 160.566 -134.367 161.246 C-133.377 161.576 -132.387 161.906 -131.367 162.246 C-131.077 163.137 -130.787 164.028 -130.488 164.945 C-127.199 174.629 -115.424 183.482 -107.367 189.246 C-105.809 189.964 -104.247 190.673 -102.68 191.371 C-100.762 192.453 -100.762 192.453 -99.367 194.246 C-98.684 199.333 -98.905 204.148 -99.367 209.246 C-107.171 207.615 -115.224 202.198 -121.367 197.246 C-121.367 196.586 -121.367 195.926 -121.367 195.246 C-122.172 194.906 -122.172 194.906 -122.992 194.559 C-127.55 192.04 -131.605 188.697 -134.367 184.246 C-134.367 183.586 -134.367 182.926 -134.367 182.246 C-135.357 181.916 -136.347 181.586 -137.367 181.246 C-139.374 178.712 -141.22 176.124 -143.051 173.463 C-144.089 172.007 -145.223 170.62 -146.367 169.246 C-154.427 169.246 -162.416 172.886 -169.921 175.505 C-171.862 176.182 -173.804 176.854 -175.746 177.525 C-192.854 183.461 -209.444 190.019 -225.546 198.32 C-228.255 199.698 -231.003 200.993 -233.742 202.309 C-240.085 205.471 -246.33 209.209 -251.367 214.246 C-252.687 214.246 -254.007 214.246 -255.367 214.246 C-252.463 204.38 -239.088 198.187 -230.499 193.499 C-229.124 192.762 -227.747 192.031 -226.367 191.303 C-224.481 190.307 -222.612 189.284 -220.742 188.258 C-199.078 176.642 -174.671 169.855 -151.367 162.246 C-153 157.183 -154.715 152.242 -156.867 147.371 C-168.636 119.38 -166.519 88.018 -155.367 60.246 C-151.272 50.658 -146.401 41.039 -139.367 33.246 C-138.707 33.246 -138.047 33.246 -137.367 33.246 C-137.094 32.658 -136.821 32.07 -136.539 31.465 C-127.718 14.764 -107.148 3.663 -90.367 -2.754 C-89.311 -3.187 -88.256 -3.62 -87.168 -4.066 C-59.169 -14.993 -26.966 -12.891 0 0 Z " fill="#EE5B29" transform="translate(359.3671875,76.75390625)"/>
<path d="M0 0 C3.436 0.772 5.808 1.971 8.75 3.938 C9.949 4.724 9.949 4.724 11.172 5.527 C12.077 6.256 12.077 6.256 13 7 C13 7.66 13 8.32 13 9 C13.731 9.267 14.462 9.534 15.215 9.809 C17.97 10.987 20.131 12.322 22.562 14.062 C23.854 14.985 23.854 14.985 25.172 15.926 C29.228 18.901 33.241 21.931 37.238 24.984 C39.755 26.822 42.301 28.446 45 30 C45.929 29.252 46.859 28.505 47.816 27.734 C49.065 26.739 50.314 25.745 51.562 24.75 C52.172 24.259 52.781 23.768 53.408 23.262 C56.38 20.903 59.303 18.748 62.629 16.914 C65.889 15.063 68.533 13.057 71.375 10.625 C84.125 0 84.125 0 89 0 C89.124 4.181 89.215 8.361 89.275 12.543 C89.3 13.964 89.334 15.385 89.377 16.805 C89.438 18.854 89.466 20.9 89.488 22.949 C89.514 24.18 89.541 25.411 89.568 26.678 C88.846 30.902 87.309 32.374 84 35 C83.34 35 82.68 35 82 35 C81.67 35.99 81.34 36.98 81 38 C78.715 39.605 78.715 39.605 75.938 41.188 C75.018 41.717 74.099 42.247 73.152 42.793 C72.442 43.191 71.732 43.59 71 44 C70.34 41.69 69.68 39.38 69 37 C66.289 38.891 63.581 40.789 60.875 42.688 C60.114 43.218 59.354 43.748 58.57 44.295 C55.122 46.718 51.815 49.12 48.695 51.957 C46 54 46 54 43.961 54.047 C41.336 52.646 39.012 51.028 36.625 49.25 C35.654 48.529 34.684 47.809 33.684 47.066 C31.631 45.486 29.643 43.884 27.688 42.188 C24.931 39.944 22.23 38.461 19 37 C18.67 38.32 18.34 39.64 18 41 C13.397 39.705 10.508 37.005 7.062 33.852 C5 31.908 5 31.908 2.402 30.292 C0 28 0 28 -0.568 24.976 C-0.541 23.823 -0.515 22.671 -0.488 21.484 C-0.472 20.234 -0.456 18.984 -0.439 17.695 C-0.398 16.393 -0.356 15.091 -0.312 13.75 C-0.29 12.433 -0.267 11.115 -0.244 9.758 C-0.185 6.504 -0.103 3.253 0 0 Z " fill="#3D3F3F" transform="translate(269,114)"/>
<path d="M0 0 C2.973 1.461 5.734 3.047 8.5 4.875 C9.253 5.367 10.006 5.86 10.781 6.367 C16.763 10.769 16.763 10.769 17.546 14.835 C17.567 15.957 17.588 17.079 17.609 18.234 C17.634 19.198 17.634 19.198 17.66 20.181 C17.71 22.371 17.73 24.56 17.75 26.75 C17.778 28.321 17.807 29.891 17.838 31.462 C18.295 58.633 18.084 85.826 18 113 C11.291 111.955 5.944 110.302 0 107 C-0.169 100.899 -0.329 94.797 -0.482 88.696 C-0.535 86.623 -0.591 84.55 -0.648 82.478 C-0.731 79.487 -0.806 76.495 -0.879 73.504 C-0.906 72.588 -0.933 71.672 -0.961 70.728 C-1.054 66.642 -1.029 62.694 -0.514 58.637 C0.215 52.868 0.124 47.115 0.098 41.309 C0.096 40.123 0.095 38.937 0.093 37.715 C0.088 33.956 0.075 30.197 0.062 26.438 C0.057 23.877 0.053 21.316 0.049 18.756 C0.038 12.504 0.021 6.252 0 0 Z " fill="#393A3B" transform="translate(269,183)"/>
<path d="M0 0 C2.687 0.579 2.687 0.579 5.742 0.93 C6.892 1.086 8.042 1.242 9.227 1.402 C11.619 1.712 14.013 2.02 16.406 2.324 C28.208 3.934 40.47 6.364 50 14 C50.495 15.485 50.495 15.485 51 17 C51.66 17 52.32 17 53 17 C55.094 20.402 55.179 23.053 55 27 C54.34 27 53.68 27 53 27 C53.33 27.99 53.66 28.98 54 30 C52.495 34.262 50.055 38.667 47 42 C46.34 42 45.68 42 45 42 C44.751 42.587 44.502 43.173 44.246 43.777 C38.657 53.746 23.611 59.714 14 65 C12.912 65.602 11.824 66.204 10.703 66.824 C4.954 69.85 -0.965 72.223 -7.062 74.438 C-7.802 74.709 -8.541 74.981 -9.303 75.261 C-14.636 77.121 -14.636 77.121 -18 76 C-17.047 75.585 -17.047 75.585 -16.076 75.161 C-13.171 73.889 -10.273 72.601 -7.375 71.312 C-5.876 70.66 -5.876 70.66 -4.348 69.994 C1.187 67.52 5.514 65.062 10 61 C12.273 59.629 12.273 59.629 14.375 58.562 C22.44 54.193 28.183 48.986 34.117 41.977 C34.739 41.324 35.36 40.672 36 40 C36.66 40 37.32 40 38 40 C39.89 34.445 39.89 34.445 39.062 28.812 C34.622 22.757 28.573 20.07 21.625 17.875 C20.835 17.623 20.046 17.372 19.232 17.113 C5.021 12.737 -20.339 6.169 -34 13 C-34.382 7.143 -33.715 1.289 -31 -4 C-23.434 -7.609 -6.877 -4.585 0 0 Z " fill="#64ACD3" transform="translate(456,204)"/>
<path d="M0 0 C0.99 0 1.98 0 3 0 C2.995 0.921 2.99 1.842 2.984 2.791 C2.967 6.286 2.954 9.78 2.945 13.275 C2.94 14.773 2.933 16.271 2.925 17.769 C2.881 25.318 2.925 32.803 3.496 40.336 C4.121 48.712 4.151 57.058 4.13 65.452 C4.125 68.063 4.13 70.673 4.137 73.283 C4.14 82.905 3.87 92.411 3 102 C1.835 102.446 1.835 102.446 0.647 102.901 C-0.247 103.243 -1.141 103.585 -2.062 103.938 C-6.386 105.592 -10.416 106.391 -15 107 C-15.023 98.105 -15.041 89.211 -15.052 80.316 C-15.057 76.184 -15.064 72.051 -15.075 67.919 C-15.102 57.934 -15.094 47.951 -15.014 37.967 C-15.001 36.125 -14.993 34.284 -14.985 32.442 C-14.964 29.485 -14.907 26.531 -14.832 23.574 C-14.83 22.764 -14.827 21.954 -14.825 21.12 C-14.675 17.116 -14.037 14.582 -11.446 11.593 C-8.625 9 -8.625 9 -5.664 6.938 C-2.821 4.87 -1.766 2.973 0 0 Z " fill="#393A3A" transform="translate(354,189)"/>
<path d="M0 0 C3.529 0.639 5.906 1.303 8.812 3.438 C9.417 3.869 10.022 4.301 10.645 4.746 C11.092 5.16 11.539 5.574 12 6 C12 6.66 12 7.32 12 8 C12.701 8.227 13.403 8.454 14.125 8.688 C17.693 10.317 20.065 12.406 23 15 C22.67 15.66 22.34 16.32 22 17 C19.475 15.918 17.994 14.994 16.125 12.938 C14.083 10.72 14.083 10.72 10.875 10.5 C9.926 10.335 8.977 10.17 8 10 C6.812 8 6.812 8 6 6 C5.01 5.67 4.02 5.34 3 5 C2.977 17.369 2.959 29.738 2.948 42.108 C2.943 47.85 2.936 53.593 2.925 59.336 C2.914 64.873 2.908 70.411 2.905 75.948 C2.903 78.065 2.9 80.183 2.894 82.301 C2.887 85.256 2.886 88.211 2.886 91.166 C2.883 92.05 2.879 92.935 2.876 93.847 C2.496 97.735 2.496 97.735 4 101 C6.186 101.073 8.375 101.084 10.562 101.062 C11.76 101.053 12.958 101.044 14.191 101.035 C15.582 101.018 15.582 101.018 17 101 C16.992 99.744 16.992 99.744 16.984 98.463 C16.874 77.95 17.19 57.497 18 37 C18.33 37 18.66 37 19 37 C19 59.11 19 81.22 19 104 C29.764 101.702 29.764 101.702 40 98 C41.471 100.941 41.17 103.602 41.188 106.875 C41.202 108.11 41.216 109.345 41.23 110.617 C41.018 113.741 40.652 115.401 39 118 C39 117.34 39 116.68 39 116 C38.236 116.289 37.471 116.577 36.684 116.875 C27.759 119.968 20.329 120.464 11 120 C12 117 12 117 13.848 115.832 C14.579 115.496 15.309 115.159 16.062 114.812 C17.163 114.296 17.163 114.296 18.285 113.77 C18.851 113.516 19.417 113.262 20 113 C18.831 113.3 17.662 113.601 16.457 113.91 C14.909 114.295 13.361 114.679 11.812 115.062 C11.044 115.262 10.275 115.461 9.482 115.666 C4.443 116.899 0.797 117.399 -4 115 C-4 114.01 -4 113.02 -4 112 C-0.864 110.171 2.314 109.4 5.828 108.574 C9.327 107.649 12.634 106.322 16 105 C11.05 104.67 6.1 104.34 1 104 C-0.282 93.202 -0.127 82.437 -0.098 71.582 C-0.096 69.513 -0.094 67.443 -0.093 65.374 C-0.09 59.96 -0.08 54.547 -0.069 49.133 C-0.058 43.596 -0.054 38.059 -0.049 32.521 C-0.038 21.681 -0.021 10.84 0 0 Z M33 109 C37 110 37 110 37 110 Z M29 110 C33 111 33 111 33 111 Z M23 16 C23.66 16 24.32 16 25 16 C24.67 16.66 24.34 17.32 24 18 C23.67 17.34 23.34 16.68 23 16 Z " fill="#6BB0D6" transform="translate(229,123)"/>
<path d="M0 0 C0.66 0.33 1.32 0.66 2 1 C0.515 1.99 0.515 1.99 -1 3 C-0.67 2.01 -0.34 1.02 0 0 Z M-3 3 C-1 4 -1 4 -1 4 Z M-62 1 C-61.67 1 -61.34 1 -61 1 C-61 8.26 -61 15.52 -61 23 C-56.894 22.217 -52.79 21.424 -48.688 20.625 C-47.52 20.403 -46.353 20.182 -45.15 19.953 C-44.032 19.734 -42.914 19.515 -41.762 19.289 C-40.73 19.09 -39.698 18.891 -38.635 18.686 C-35.796 18.1 -35.796 18.1 -33 16 C-33 16.66 -33 17.32 -33 18 C-32.01 18 -31.02 18 -30 18 C-29.505 16.515 -29.505 16.515 -29 15 C-27.175 15.031 -27.175 15.031 -25.312 15.062 C-22.058 15.068 -19.19 14.654 -16 14 C-13.667 13.962 -11.333 13.954 -9 14 C-9 12.02 -9 10.04 -9 8 C-8.34 8.33 -7.68 8.66 -7 9 C-7.11 12.459 -7.24 15.917 -7.375 19.375 C-7.421 20.852 -7.421 20.852 -7.469 22.359 C-7.507 23.3 -7.546 24.241 -7.586 25.211 C-7.617 26.08 -7.649 26.95 -7.681 27.845 C-8 30 -8 30 -10 32 C-10 31.34 -10 30.68 -10 30 C-11.053 30.289 -12.106 30.577 -13.191 30.875 C-19.037 32.336 -24.981 33.132 -30.938 34 C-37.695 34.988 -44.402 35.969 -51.045 37.572 C-54.336 38.293 -57.652 38.635 -61 39 C-62.586 35.827 -62.121 32.412 -62.098 28.93 C-62.096 28.133 -62.095 27.337 -62.093 26.517 C-62.088 23.97 -62.075 21.422 -62.062 18.875 C-62.057 17.15 -62.053 15.424 -62.049 13.699 C-62.038 9.466 -62.021 5.233 -62 1 Z M-42 10 C-40.125 10.312 -40.125 10.312 -38 11 C-37.34 11.99 -36.68 12.98 -36 14 C-38.468 12.848 -40.048 11.952 -42 10 Z " fill="#60ABD4" transform="translate(348,195)"/>
<path d="M0 0 C0.33 0 0.66 0 1 0 C1.33 24.75 1.66 49.5 2 75 C12.223 75.141 12.223 75.141 22 74 C21.653 81.851 19.715 88.649 17 96 C16.67 95.01 16.34 94.02 16 93 C9.07 93.99 9.07 93.99 2 95 C1.34 97.31 0.68 99.62 0 102 C-5.94 102 -11.88 102 -18 102 C-18.495 99.525 -18.495 99.525 -19 97 C-18.361 97.33 -17.721 97.66 -17.062 98 C-13.557 99.145 -10.736 99.116 -7.086 98.973 C-5 99 -5 99 -2 100 C-2 98.35 -2 96.7 -2 95 C-1.34 95 -0.68 95 0 95 C0 63.65 0 32.3 0 0 Z M-19 40 C-18.67 40 -18.34 40 -18 40 C-17.855 45.119 -17.712 50.238 -17.573 55.356 C-17.525 57.09 -17.477 58.824 -17.427 60.558 C-17.262 66.371 -17.12 72.185 -17 78 C-16.982 78.789 -16.965 79.577 -16.946 80.39 C-16.901 82.614 -16.869 84.838 -16.844 87.062 C-16.816 88.967 -16.816 88.967 -16.787 90.91 C-17 94 -17 94 -19 97 C-24.035 99.398 -27.68 98.917 -33 98 C-33.33 98.66 -33.66 99.32 -34 100 C-35.247 96.26 -35.146 92.768 -35.125 88.875 C-35.129 88.134 -35.133 87.393 -35.137 86.629 C-35.127 81.127 -35.127 81.127 -34 80 C-28.828 79.05 -24.364 79 -19 79 C-19 66.13 -19 53.26 -19 40 Z " fill="#66ADD0" transform="translate(391,125)"/>
<path d="M0 0 C3 0.25 3 0.25 5 2.25 C5.25 5.75 5.25 5.75 5 9.25 C3 11.25 3 11.25 0 11.5 C-3 11.25 -3 11.25 -5 9.25 C-5.25 5.75 -5.25 5.75 -5 2.25 C-3 0.25 -3 0.25 0 0 Z M20.848 0.152 C22.898 0.185 24.949 0.217 27 0.25 C28.776 5.934 27.909 12.005 27.688 17.875 C27.652 19.128 27.617 20.381 27.58 21.672 C27.515 23.462 27.515 23.462 27.449 25.289 C27.411 26.384 27.374 27.48 27.335 28.608 C27 31.25 27 31.25 25 33.25 C21.833 33.719 20.436 33.542 17.754 31.746 C17.031 31.067 16.308 30.387 15.562 29.688 C14.792 28.964 14.021 28.241 13.227 27.496 C10.298 24.542 7.623 21.478 5 18.25 C4.67 22.87 4.34 27.49 4 32.25 C-2.152 33.129 -2.152 33.129 -4 33.25 C-5 32.25 -5 32.25 -5.114 30.209 C-5.108 29.334 -5.103 28.46 -5.098 27.559 C-5.094 26.614 -5.091 25.67 -5.088 24.697 C-5.08 23.704 -5.071 22.711 -5.062 21.688 C-5.058 20.69 -5.053 19.693 -5.049 18.666 C-5.037 16.194 -5.021 13.722 -5 11.25 C-2.03 11.58 0.94 11.91 4 12.25 C4.289 11.446 4.577 10.641 4.875 9.812 C6 7.25 6 7.25 8 6.25 C11.412 7.387 12.119 8.293 14 11.25 C14 11.91 14 12.57 14 13.25 C15.32 13.58 16.64 13.91 18 14.25 C17.988 13.323 17.977 12.396 17.965 11.441 C17.956 10.244 17.947 9.046 17.938 7.812 C17.926 6.618 17.914 5.423 17.902 4.191 C18.032 0.301 18.032 0.301 20.848 0.152 Z " fill="#131414" transform="translate(252,304.75)"/>
<path d="M0 0 C0.99 -0.66 1.98 -1.32 3 -2 C10.708 -2.561 10.708 -2.561 14 0 C16.053 3.695 16.194 6.825 16 11 C13.36 11 10.72 11 8 11 C8 9.68 8 8.36 8 7 C6.35 7 4.7 7 3 7 C3 14.59 3 22.18 3 30 C0.03 30 -2.94 30 -6 30 C-6 22.41 -6 14.82 -6 7 C-7.65 7 -9.3 7 -11 7 C-11.33 14.59 -11.66 22.18 -12 30 C-14.64 30 -17.28 30 -20 30 C-20 19.77 -20 9.54 -20 -1 C-4.194 -2.581 -4.194 -2.581 0 0 Z " fill="#3A3B3C" transform="translate(151,306)"/>
<path d="M0 0 C1.687 1.29 1.687 1.29 2.687 4.29 C-0.218 6.227 -2.391 6.825 -5.731 7.607 C-10.865 8.965 -15.855 10.8 -20.867 12.549 C-22.807 13.226 -24.749 13.898 -26.692 14.569 C-43.799 20.505 -60.39 27.063 -76.492 35.364 C-79.201 36.742 -81.948 38.037 -84.688 39.353 C-91.03 42.515 -97.276 46.253 -102.313 51.29 C-103.633 51.29 -104.953 51.29 -106.313 51.29 C-103.409 41.424 -90.033 35.231 -81.444 30.543 C-80.07 29.806 -78.692 29.075 -77.313 28.347 C-75.427 27.35 -73.557 26.328 -71.688 25.302 C-59.743 18.898 -46.999 14.452 -34.239 9.968 C-32.233 9.262 -30.229 8.55 -28.224 7.838 C-24.783 6.618 -21.335 5.418 -17.882 4.232 C-16.551 3.773 -15.221 3.309 -13.893 2.841 C-12.04 2.189 -10.178 1.559 -8.317 0.931 C-7.253 0.565 -6.189 0.199 -5.092 -0.178 C-2.313 -0.71 -2.313 -0.71 0 0 Z " fill="#7EB4D3" transform="translate(210.312744140625,239.7099609375)"/>
<path d="M0 0 C1.98 0 3.96 0 6 0 C6 1.32 6 2.64 6 4 C6.887 3.814 7.774 3.629 8.688 3.438 C11.939 3.008 13.95 2.814 17 4 C18.312 6.562 18.312 6.562 19 9 C20.938 6.227 20.938 6.227 22 4 C23.98 4 25.96 4 28 4 C27.514 8.783 26.885 12.565 25 17 C24.697 18.331 24.407 19.664 24.125 21 C23.153 24.858 22.169 27.4 19 30 C15.954 30.405 13.052 30.294 10 30 C10.188 27.125 10.188 27.125 11 24 C13.562 22.625 13.562 22.625 16 22 C15.567 21.319 15.134 20.639 14.688 19.938 C12.825 16.695 11.423 13.455 10 10 C8.68 10 7.36 10 6 10 C6 12.31 6 14.62 6 17 C7.65 17.33 9.3 17.66 11 18 C10.67 19.65 10.34 21.3 10 23 C3.53 23.366 3.53 23.366 1.281 21.812 C-0.443 19.373 -0.303 17.769 -0.188 14.812 C-0.16 13.911 -0.133 13.01 -0.105 12.082 C-0.071 11.395 -0.036 10.708 0 10 C-1.32 10 -2.64 10 -4 10 C-4 13.96 -4 17.92 -4 22 C-6.31 22 -8.62 22 -11 22 C-11 16.06 -11 10.12 -11 4 C-8.36 4 -5.72 4 -3 4 C-0.947 2.158 -0.947 2.158 0 0 Z M19 11 C20 13 20 13 20 13 Z " fill="#1C1D1E" transform="translate(458,314)"/>
<path d="M0 0 C3.947 2.412 5.627 4.086 7.375 8.375 C8.003 12.017 8.221 15.313 8 19 C7 20 7 20 3.621 20.098 C2.227 20.091 0.832 20.079 -0.562 20.062 C-1.273 20.058 -1.984 20.053 -2.717 20.049 C-4.478 20.037 -6.239 20.019 -8 20 C-7.34 21.32 -6.68 22.64 -6 24 C-4.68 24 -3.36 24 -2 24 C-1.67 23.01 -1.34 22.02 -1 21 C1.64 21.33 4.28 21.66 7 22 C7.438 24.125 7.438 24.125 7 27 C4.585 30.154 1.83 32.541 -2.07 33.52 C-5.54 33.698 -7.823 33.103 -10.812 31.375 C-16.033 25.707 -16.536 20.718 -16.355 13.207 C-15.882 8.936 -14.815 5.31 -12 2 C-8.193 -0.366 -4.381 -0.809 0 0 Z M-8 10 C-8 10.66 -8 11.32 -8 12 C-5.69 12 -3.38 12 -1 12 C-1 11.01 -1 10.02 -1 9 C-4.486 7.798 -4.68 7.787 -8 10 Z " fill="#3C3E3E" transform="translate(238,304)"/>
<path d="M0 0 C2.5 1 2.5 1 4 2 C4 2.99 4 3.98 4 5 C4.66 5 5.32 5 6 5 C9.146 12.519 9.622 18.324 6.938 26.062 C6.628 26.702 6.319 27.341 6 28 C5.34 28 4.68 28 4 28 C4 28.99 4 29.98 4 31 C0.157 32.809 -2.758 33.433 -7 33 C-10.375 31.5 -10.375 31.5 -13 30 C-13 29.34 -13 28.68 -13 28 C-13.66 28 -14.32 28 -15 28 C-15.33 25.36 -15.66 22.72 -16 20 C-12.7 20 -9.4 20 -6 20 C-5.67 20.66 -5.34 21.32 -5 22 C-2.03 19.525 -2.03 19.525 1 17 C-1.546 13.476 -1.546 13.476 -5 11 C-5.33 11.66 -5.66 12.32 -6 13 C-9.3 13 -12.6 13 -16 13 C-15.632 5.632 -15.632 5.632 -12.562 2.562 C-8.292 -0.042 -4.968 -0.422 0 0 Z " fill="#353536" transform="translate(187,304)"/>
<path d="M0 0 C5.536 -0.025 11.072 -0.043 16.608 -0.055 C18.492 -0.06 20.377 -0.067 22.262 -0.075 C24.965 -0.088 27.668 -0.093 30.371 -0.098 C31.219 -0.103 32.067 -0.108 32.941 -0.113 C34.961 -0.113 36.981 -0.062 39 0 C40 1 40 1 40.098 3.504 C40.086 4.513 40.074 5.523 40.062 6.562 C40.053 7.574 40.044 8.586 40.035 9.629 C40.024 10.411 40.012 11.194 40 12 C27.085 16.967 13.323 14.99 0 13 C0 8.71 0 4.42 0 0 Z " fill="#F05A27" transform="translate(292,284)"/>
<path d="M0 0 C2.64 0 5.28 0 8 0 C9.719 3.985 11.387 7.969 13 12 C14.32 8.04 15.64 4.08 17 0 C19.97 0 22.94 0 26 0 C24.147 7.104 22.072 14.121 19.875 21.125 C19.476 22.406 19.476 22.406 19.07 23.712 C18.691 24.91 18.691 24.91 18.305 26.133 C18.078 26.854 17.851 27.574 17.617 28.317 C17 30 17 30 16 31 C13.125 31.375 13.125 31.375 10 31 C6.956 27.019 5.768 22.501 4.438 17.75 C4.113 16.621 4.113 16.621 3.782 15.469 C2.329 10.348 1.044 5.222 0 0 Z " fill="#343536" transform="translate(196,305)"/>
<path d="M0 0 C1.563 0.008 1.563 0.008 3.158 0.016 C4.283 0.019 5.407 0.022 6.566 0.026 C7.75 0.034 8.934 0.042 10.154 0.051 C11.342 0.056 12.53 0.06 13.754 0.065 C16.7 0.077 19.646 0.093 22.592 0.114 C24.186 3.302 23.693 6.742 23.654 10.239 C23.65 10.993 23.645 11.747 23.64 12.524 C23.629 14.387 23.611 16.25 23.592 18.114 C21.282 18.114 18.972 18.114 16.592 18.114 C16.592 13.824 16.592 9.534 16.592 5.114 C15.602 5.609 15.602 5.609 14.592 6.114 C14.123 8.93 14.123 8.93 13.967 12.176 C13.892 13.281 13.817 14.385 13.74 15.524 C13.691 16.378 13.642 17.233 13.592 18.114 C11.612 18.114 9.632 18.114 7.592 18.114 C7.262 14.154 6.932 10.194 6.592 6.114 C6.262 6.114 5.932 6.114 5.592 6.114 C5.531 6.896 5.47 7.678 5.408 8.485 C5.324 9.497 5.24 10.508 5.154 11.551 C5.073 12.56 4.992 13.57 4.908 14.61 C4.592 17.114 4.592 17.114 3.592 18.114 C1.259 18.154 -1.075 18.156 -3.408 18.114 C-3.435 15.301 -3.455 12.489 -3.471 9.676 C-3.479 8.874 -3.488 8.071 -3.496 7.244 C-3.505 5.201 -3.461 3.157 -3.408 1.114 C-2.408 0.114 -2.408 0.114 0 0 Z " fill="#262727" transform="translate(362.408447265625,317.886474609375)"/>
<path d="M0 0 C3.529 0.639 5.906 1.303 8.812 3.438 C9.417 3.869 10.022 4.301 10.645 4.746 C11.092 5.16 11.539 5.574 12 6 C12 6.66 12 7.32 12 8 C12.701 8.227 13.403 8.454 14.125 8.688 C17.693 10.317 20.065 12.406 23 15 C22.67 15.66 22.34 16.32 22 17 C19.475 15.918 17.994 14.994 16.125 12.938 C14.083 10.72 14.083 10.72 10.875 10.5 C9.926 10.335 8.977 10.17 8 10 C6.812 8 6.812 8 6 6 C5.01 5.67 4.02 5.34 3 5 C2.977 17.369 2.959 29.738 2.948 42.108 C2.943 47.85 2.936 53.593 2.925 59.336 C2.914 64.873 2.908 70.411 2.905 75.948 C2.903 78.065 2.9 80.183 2.894 82.301 C2.887 85.256 2.886 88.211 2.886 91.166 C2.883 92.05 2.879 92.935 2.876 93.847 C2.496 97.735 2.496 97.735 4 101 C6.186 101.073 8.375 101.084 10.562 101.062 C11.76 101.053 12.958 101.044 14.191 101.035 C15.582 101.018 15.582 101.018 17 101 C16.992 99.744 16.992 99.744 16.984 98.463 C16.874 77.95 17.19 57.497 18 37 C18.33 37 18.66 37 19 37 C19.023 45.588 19.041 54.176 19.052 62.764 C19.057 66.752 19.064 70.739 19.075 74.726 C19.086 78.571 19.092 82.416 19.095 86.261 C19.097 87.731 19.1 89.201 19.106 90.671 C19.113 92.724 19.114 94.776 19.114 96.828 C19.116 97.998 19.118 99.168 19.12 100.374 C19 103 19 103 18 104 C15.137 104.073 12.299 104.092 9.438 104.062 C8.631 104.058 7.825 104.053 6.994 104.049 C4.996 104.037 2.998 104.019 1 104 C-0.402 93.237 -0.126 82.411 -0.098 71.582 C-0.096 69.513 -0.094 67.443 -0.093 65.374 C-0.09 59.96 -0.08 54.547 -0.069 49.133 C-0.058 43.596 -0.054 38.059 -0.049 32.521 C-0.038 21.681 -0.021 10.84 0 0 Z M23 16 C23.66 16 24.32 16 25 16 C24.67 16.66 24.34 17.32 24 18 C23.67 17.34 23.34 16.68 23 16 Z " fill="#4794BF" transform="translate(229,123)"/>
<path d="M0 0 C1.454 0.031 1.454 0.031 2.938 0.062 C2.938 3.033 2.938 6.002 2.938 9.062 C4.361 8.98 5.784 8.897 7.25 8.812 C11.628 8.847 11.628 8.847 14 10.5 C15.427 14.4 15.739 17.974 14.938 22.062 C12.756 24.818 11.066 26.498 7.938 28.062 C6.461 28.158 4.98 28.192 3.5 28.188 C2.326 28.191 2.326 28.191 1.129 28.195 C-1.062 28.062 -1.062 28.062 -4.062 27.062 C-4.091 22.75 -4.109 18.438 -4.125 14.125 C-4.133 12.893 -4.142 11.662 -4.15 10.393 C-4.154 9.223 -4.157 8.053 -4.16 6.848 C-4.165 5.764 -4.171 4.68 -4.176 3.563 C-4.008 -0.13 -3.762 0.077 0 0 Z M3.938 14.062 C2.522 15.247 2.522 15.247 2.875 18.625 C2.896 19.759 2.916 20.894 2.938 22.062 C4.257 22.062 5.577 22.062 6.938 22.062 C7.737 18.776 8.034 17.352 6.938 14.062 C5.947 14.062 4.957 14.062 3.938 14.062 Z " fill="#1B1C1D" transform="translate(412.0625,308.9375)"/>
<path d="M0 0 C0.33 0 0.66 0 1 0 C1.33 24.75 1.66 49.5 2 75 C12.223 75.141 12.223 75.141 22 74 C21.913 75.605 21.804 77.209 21.688 78.812 C21.629 79.706 21.571 80.599 21.512 81.52 C21 84 21 84 18 87 C12.06 87.33 6.12 87.66 0 88 C0 58.96 0 29.92 0 0 Z " fill="#84E0F5" transform="translate(391,125)"/>
<path d="M0 0 C1.65 0 3.3 0 5 0 C5.33 4.29 5.66 8.58 6 13 C6.99 11.68 7.98 10.36 9 9 C11.761 8.472 14.164 8.814 17 9 C16.67 10.32 16.34 11.64 16 13 C15.34 13 14.68 13 14 13 C12.528 15.659 12.528 15.659 12 19 C12.986 20.691 12.986 20.691 14.438 22.188 C15.283 23.116 16.129 24.044 17 25 C16.67 25.99 16.34 26.98 16 28 C13.25 28.312 13.25 28.312 10 28 C7.625 25.5 7.625 25.5 6 23 C5.67 24.32 5.34 25.64 5 27 C3.344 27.382 1.675 27.714 0 28 C-1.774 26.226 -1.13 23.65 -1.133 21.25 C-1.134 20.085 -1.135 18.919 -1.137 17.719 C-1.133 16.492 -1.129 15.264 -1.125 14 C-1.129 12.773 -1.133 11.546 -1.137 10.281 C-1.135 9.116 -1.134 7.951 -1.133 6.75 C-1.132 5.672 -1.131 4.595 -1.129 3.484 C-1 1 -1 1 0 0 Z " fill="#1F2021" transform="translate(334,309)"/>
<path d="M0 0 C0.66 0.66 1.32 1.32 2 2 C1.602 2.993 1.203 3.985 0.793 5.008 C-2.717 13.939 -5.281 22.537 -7 32 C-7.259 33.152 -7.259 33.152 -7.523 34.327 C-8.42 39.358 -8.185 44.466 -8.188 49.562 C-8.2 50.679 -8.212 51.796 -8.225 52.947 C-8.243 63.677 -6.812 73.725 -3.312 83.875 C-3.052 84.639 -2.791 85.403 -2.523 86.19 C4.19 105.27 15.643 121.842 30 136 C29.67 136.66 29.34 137.32 29 138 C21.158 131.555 21.158 131.555 19 128 C19 127.34 19 126.68 19 126 C17.515 125.505 17.515 125.505 16 125 C13.844 122.488 13.844 122.488 11.5 119.312 C10.727 118.277 9.953 117.242 9.156 116.176 C7.127 113.187 5.55 110.257 4 107 C3.456 105.982 2.912 104.963 2.352 103.914 C-11.683 77.179 -15.438 46.126 -6.535 17.086 C-2.544 4.637 -2.544 4.637 0 0 Z " fill="#E28E6F" transform="translate(206,133)"/>
<path d="M0 0 C2.688 1.375 2.688 1.375 4 4 C4.768 8.102 5.188 12.107 2.895 15.762 C0.192 18.29 -1.995 18.999 -5.625 19.438 C-10.576 18.796 -10.576 18.796 -13 17 C-15.705 13.483 -15.435 9.238 -15 5 C-12.575 -1.756 -6.216 -0.615 0 0 Z M-7 5 C-8.416 6.184 -8.416 6.184 -8.062 9.562 C-8.042 10.697 -8.021 11.831 -8 13 C-6.35 12.67 -4.7 12.34 -3 12 C-3 10.35 -3 8.7 -3 7 C-4.32 6.34 -5.64 5.68 -7 5 Z " fill="#222425" transform="translate(403,318)"/>
<path d="M0 0 C13.166 -0.25 25.935 0.345 39 2 C39.495 3.485 39.495 3.485 40 5 C41.156 5.182 41.156 5.182 42.336 5.367 C43.84 5.619 43.84 5.619 45.375 5.875 C46.373 6.037 47.37 6.2 48.398 6.367 C51 7 51 7 53 9 C46.804 8.66 46.804 8.66 43.895 8.494 C38.746 8.201 33.596 7.928 28.445 7.676 C25.266 7.518 22.087 7.353 18.908 7.186 C17.301 7.104 15.693 7.025 14.086 6.949 C11.796 6.84 9.508 6.72 7.219 6.598 C6.521 6.567 5.822 6.537 5.103 6.506 C0.228 6.228 0.228 6.228 -2 4 C-1.34 2.68 -0.68 1.36 0 0 Z " fill="#57D4F1" transform="translate(425,206)"/>
<path d="M0 0 C2.558 -0.062 5.115 -0.124 7.75 -0.188 C8.948 -0.228 8.948 -0.228 10.171 -0.27 C13.491 -0.309 15.641 -0.215 18.516 1.512 C19.005 2.003 19.495 2.494 20 3 C19.67 3.66 19.34 4.32 19 5 C18.77 7.204 18.589 9.414 18.438 11.625 C18.354 12.814 18.27 14.002 18.184 15.227 C18.093 16.599 18.093 16.599 18 18 C15.69 18 13.38 18 11 18 C11 13.71 11 9.42 11 5 C9.68 5.33 8.36 5.66 7 6 C7 9.96 7 13.92 7 18 C5.02 18 3.04 18 1 18 C0.67 12.06 0.34 6.12 0 0 Z " fill="#191A1A" transform="translate(312,318)"/>
<path d="M0 0 C1.454 0.031 1.454 0.031 2.938 0.062 C4.216 2.62 4.051 4.43 4.035 7.289 C4.032 8.32 4.029 9.352 4.025 10.414 C4.017 11.494 4.009 12.575 4 13.688 C3.995 14.775 3.991 15.863 3.986 16.984 C3.975 19.677 3.958 22.37 3.938 25.062 C5.257 25.062 6.577 25.062 7.938 25.062 C7.938 27.043 7.938 29.022 7.938 31.062 C3.944 31.454 1.658 31.52 -1.777 29.34 C-5.32 24.259 -4.634 19.345 -4.438 13.312 C-4.423 12.151 -4.409 10.99 -4.395 9.793 C-4.224 0.086 -4.224 0.086 0 0 Z " fill="#181919" transform="translate(293.0625,305.9375)"/>
<path d="M0 0 C0.66 0.33 1.32 0.66 2 1 C1.301 4.147 0.239 7.026 -1 10 C-1.66 10 -2.32 10 -3 10 C-2.505 11.485 -2.505 11.485 -2 13 C-15.331 21.153 -28.328 29.078 -43.062 34.438 C-43.802 34.709 -44.542 34.981 -45.303 35.261 C-50.636 37.121 -50.636 37.121 -54 36 C-53.365 35.723 -52.73 35.447 -52.076 35.161 C-49.171 33.889 -46.273 32.601 -43.375 31.312 C-41.876 30.66 -41.876 30.66 -40.348 29.994 C-34.813 27.52 -30.486 25.062 -26 21 C-23.727 19.629 -23.727 19.629 -21.625 18.562 C-12.762 13.761 -6.535 7.654 0 0 Z M3 7 C3.66 7.33 4.32 7.66 5 8 C4.01 8 3.02 8 2 8 C2.33 7.67 2.66 7.34 3 7 Z M0 9 C0.66 9.33 1.32 9.66 2 10 C0.02 10.99 0.02 10.99 -2 12 C-1.34 11.01 -0.68 10.02 0 9 Z " fill="#B6CDDE" transform="translate(492,244)"/>
<path d="M0 0 C0.043 2 0.041 4 0 6 C-2.145 8.145 -6.499 7.963 -9.461 8.41 C-10.321 8.542 -11.182 8.674 -12.068 8.809 C-13.899 9.088 -15.73 9.365 -17.561 9.639 C-20.33 10.056 -23.097 10.485 -25.863 10.916 C-34.596 12.248 -43.135 13.545 -52 13 C-51 11 -51 11 -48.994 10.33 C-48.128 10.137 -47.263 9.945 -46.371 9.746 C-45.418 9.531 -44.465 9.317 -43.482 9.096 C-41.975 8.77 -41.975 8.77 -40.438 8.438 C-39.46 8.216 -38.482 7.995 -37.475 7.768 C-31.993 6.552 -26.584 5.591 -21 5 C-21.66 4.34 -22.32 3.68 -23 3 C-19.92 2.298 -16.835 1.616 -13.75 0.938 C-12.877 0.738 -12.005 0.539 -11.105 0.334 C-10.261 0.15 -9.417 -0.033 -8.547 -0.223 C-7.772 -0.395 -6.997 -0.568 -6.198 -0.746 C-3.848 -1.018 -2.238 -0.716 0 0 Z " fill="#57D4F1" transform="translate(339,211)"/>
<path d="M0 0 C0.66 0.33 1.32 0.66 2 1 C0.515 1.99 0.515 1.99 -1 3 C-0.67 2.01 -0.34 1.02 0 0 Z M-3 3 C-1 4 -1 4 -1 4 Z M-62 1 C-61.67 1 -61.34 1 -61 1 C-61 8.26 -61 15.52 -61 23 C-56.894 22.217 -52.79 21.424 -48.688 20.625 C-47.52 20.403 -46.353 20.182 -45.15 19.953 C-44.032 19.734 -42.914 19.515 -41.762 19.289 C-40.73 19.09 -39.698 18.891 -38.635 18.686 C-35.796 18.1 -35.796 18.1 -33 16 C-33 16.66 -33 17.32 -33 18 C-32.01 18 -31.02 18 -30 18 C-29.505 16.515 -29.505 16.515 -29 15 C-27.175 15.031 -27.175 15.031 -25.312 15.062 C-22.058 15.068 -19.19 14.654 -16 14 C-13.667 13.962 -11.333 13.954 -9 14 C-9 12.02 -9 10.04 -9 8 C-8.34 8.33 -7.68 8.66 -7 9 C-7.33 12.96 -7.66 16.92 -8 21 C-8.66 19.68 -9.32 18.36 -10 17 C-13.989 15.67 -17.185 16.616 -21.188 17.438 C-22.312 17.659 -22.312 17.659 -23.459 17.885 C-25.307 18.25 -27.154 18.624 -29 19 C-27.35 19.33 -25.7 19.66 -24 20 C-24 20.33 -24 20.66 -24 21 C-25.174 21.17 -26.349 21.34 -27.559 21.516 C-38.527 23.151 -49.248 25.288 -60 28 C-60 29.258 -60 30.516 -60 31.812 C-60 34.208 -60 36.604 -60 39 C-62 37 -62 37 -62.227 33.468 C-62.227 31.955 -62.215 30.442 -62.195 28.93 C-62.192 28.133 -62.19 27.337 -62.187 26.517 C-62.176 23.969 -62.15 21.422 -62.125 18.875 C-62.115 17.15 -62.106 15.424 -62.098 13.699 C-62.076 9.466 -62.041 5.233 -62 1 Z M-42 10 C-40.125 10.312 -40.125 10.312 -38 11 C-37.34 11.99 -36.68 12.98 -36 14 C-38.468 12.848 -40.048 11.952 -42 10 Z " fill="#67A4C6" transform="translate(348,195)"/>
<path d="M0 0 C0.33 0 0.66 0 1 0 C1.168 6.799 1.328 13.598 1.482 20.398 C1.536 22.712 1.591 25.027 1.648 27.341 C1.73 30.662 1.805 33.983 1.879 37.305 C1.906 38.344 1.933 39.384 1.961 40.455 C1.981 41.416 2.001 42.377 2.022 43.367 C2.042 44.215 2.062 45.063 2.082 45.937 C2 48 2 48 1 50 C-2.09 50.449 -2.09 50.449 -5.938 50.688 C-7.205 50.774 -8.472 50.86 -9.777 50.949 C-13 51 -13 51 -15 50 C-15 46.7 -15 43.4 -15 40 C-13.515 39.752 -13.515 39.752 -12 39.5 C-11.443 39.407 -10.886 39.314 -10.312 39.219 C-6.89 38.895 -3.438 39 0 39 C0 26.13 0 13.26 0 0 Z " fill="#6AD1ED" transform="translate(372,165)"/>
<path d="M0 0 C0 0.99 0 1.98 0 3 C-2.375 4.75 -2.375 4.75 -5 6 C-5.66 5.67 -6.32 5.34 -7 5 C-2.25 0 -2.25 0 0 0 Z M-9 6 C-8.01 6.495 -8.01 6.495 -7 7 C-7.99 7.495 -7.99 7.495 -9 8 C-9 7.34 -9 6.68 -9 6 Z M-11 8 C-10.34 8.33 -9.68 8.66 -9 9 C-10.704 10.704 -12.409 12.408 -14.117 14.109 C-15.258 15.255 -16.391 16.409 -17.508 17.578 C-18.636 18.754 -19.814 19.882 -21 21 C-21.66 21 -22.32 21 -23 21 C-23 21.66 -23 22.32 -23 23 C-25.535 25.237 -28.133 27.083 -31 28.875 C-33.496 30.643 -34.897 31.929 -36.75 34.25 C-37.493 35.157 -38.235 36.065 -39 37 C-39.66 37 -40.32 37 -41 37 C-41 37.66 -41 38.32 -41 39 C-41.681 39.186 -42.361 39.371 -43.062 39.562 C-46.642 41.314 -48.773 43.632 -51.449 46.539 C-53 48 -53 48 -55 48 C-55.155 48.959 -55.155 48.959 -55.312 49.938 C-55.539 50.618 -55.766 51.299 -56 52 C-57.485 52.495 -57.485 52.495 -59 53 C-60.209 55 -60.209 55 -61 57 C-62.32 57 -63.64 57 -65 57 C-67.251 58.917 -67.251 58.917 -69 61 C-69.66 60.67 -70.32 60.34 -71 60 C-64.355 53.796 -57.643 47.778 -50.551 42.082 C-47.46 39.559 -44.499 36.911 -41.559 34.215 C-40 33 -40 33 -38 33 C-37.711 32.381 -37.423 31.762 -37.125 31.125 C-36 29 -36 29 -34 27 C-33.01 27 -32.02 27 -31 27 C-31 26.34 -31 25.68 -31 25 C-29.362 23.546 -27.663 22.162 -25.938 20.812 C-21.803 17.514 -17.974 14.151 -14.34 10.312 C-13 9 -13 9 -11 8 Z " fill="#4189B9" transform="translate(391,124)"/>
<path d="M0 0 C0 8.509 -8.87 18.714 -14.5 24.625 C-15.325 25.409 -16.15 26.192 -17 27 C-18.837 29.125 -20.65 31.268 -22.449 33.426 C-23.217 34.205 -23.217 34.205 -24 35 C-24.66 35 -25.32 35 -26 35 C-26 35.66 -26 36.32 -26 37 C-30.762 41.469 -36.241 44.898 -41.992 47.934 C-43.661 48.82 -45.277 49.805 -46.875 50.812 C-49 52 -49 52 -52 52 C-52.746 47.143 -53.023 42.829 -52 38 C-48.469 34.061 -44.597 31.634 -40 29 C-39.01 28.34 -38.02 27.68 -37 27 C-38.349 30.092 -39.771 31.931 -42.375 34.062 C-42.992 34.582 -43.61 35.101 -44.246 35.637 C-46 37 -46 37 -48.438 38.375 C-50.426 40.443 -50.235 41.375 -50.25 44.188 C-50.168 45.446 -50.085 46.704 -50 48 C-44.621 46.54 -40.58 44.016 -36.062 40.875 C-35.001 40.144 -35.001 40.144 -33.917 39.399 C-29.354 36.177 -25.536 32.862 -22.164 28.363 C-21.78 27.913 -21.396 27.464 -21 27 C-20.34 27 -19.68 27 -19 27 C-19 26.34 -19 25.68 -19 25 C-18.34 25 -17.68 25 -17 25 C-17 24.34 -17 23.68 -17 23 C-16.34 23 -15.68 23 -15 23 C-14.794 22.319 -14.587 21.639 -14.375 20.938 C-12.82 17.617 -10.827 15.422 -8.398 12.715 C-6.701 10.633 -5.777 8.563 -5 6 C-4.34 6 -3.68 6 -3 6 C-2.814 5.072 -2.814 5.072 -2.625 4.125 C-2 2 -2 2 0 0 Z " fill="#DF886B" transform="translate(414,234)"/>
<path d="M0 0 C1.98 0 3.96 0 6 0 C6 8.91 6 17.82 6 27 C3.69 27 1.38 27 -1 27 C-1.029 22.688 -1.047 18.375 -1.062 14.062 C-1.071 12.831 -1.079 11.599 -1.088 10.33 C-1.091 9.16 -1.094 7.99 -1.098 6.785 C-1.103 5.701 -1.108 4.617 -1.114 3.5 C-1 1 -1 1 0 0 Z " fill="#232527" transform="translate(439,309)"/>
<path d="M0 0 C12.21 0 24.42 0 37 0 C36.67 0.66 36.34 1.32 36 2 C32.135 3.113 28.388 3.116 24.387 3.098 C23.14 3.094 21.892 3.091 20.607 3.088 C19.314 3.08 18.02 3.071 16.688 3.062 C14.718 3.056 14.718 3.056 12.709 3.049 C9.473 3.037 6.236 3.021 3 3 C3 5.31 3 7.62 3 10 C13.722 12.364 24.146 12.723 35 11 C38.126 9.395 38.126 9.395 38.512 7.055 C38.599 5.976 38.599 5.976 38.688 4.875 C38.791 3.596 38.894 2.317 39 1 C39.33 1 39.66 1 40 1 C40 4.63 40 8.26 40 12 C27.085 16.967 13.323 14.99 0 13 C0 8.71 0 4.42 0 0 Z " fill="#E59475" transform="translate(292,284)"/>
<path d="M0 0 C0.784 0.041 1.567 0.082 2.375 0.125 C3.035 2.105 3.695 4.085 4.375 6.125 C3.385 6.62 3.385 6.62 2.375 7.125 C2.705 7.455 3.035 7.785 3.375 8.125 C3.461 9.468 3.482 10.815 3.473 12.16 C3.469 12.969 3.466 13.778 3.463 14.611 C3.455 15.461 3.446 16.312 3.438 17.188 C3.433 18.042 3.428 18.896 3.424 19.775 C3.412 21.892 3.394 24.008 3.375 26.125 C1.065 26.125 -1.245 26.125 -3.625 26.125 C-3.85 22.167 -4.052 18.209 -4.25 14.25 C-4.314 13.122 -4.379 11.994 -4.445 10.832 C-4.497 9.756 -4.548 8.679 -4.602 7.57 C-4.654 6.575 -4.706 5.58 -4.76 4.555 C-4.561 0.977 -3.538 0.168 0 0 Z " fill="#191C1D" transform="translate(431.625,309.875)"/>
<path d="M0 0 C1.207 0.031 1.207 0.031 2.438 0.062 C4.375 3.302 4.632 5.523 4.414 9.266 C4.363 10.245 4.311 11.225 4.258 12.234 C4.193 13.25 4.129 14.266 4.062 15.312 C4.006 16.344 3.949 17.375 3.891 18.438 C3.749 20.98 3.598 23.521 3.438 26.062 C0.771 27.396 -0.729 26.734 -3.562 26.062 C-3.591 21.917 -3.609 17.771 -3.625 13.625 C-3.633 12.441 -3.642 11.257 -3.65 10.037 C-3.654 8.912 -3.657 7.788 -3.66 6.629 C-3.665 5.587 -3.671 4.545 -3.676 3.471 C-3.518 0.127 -3.361 0.082 0 0 Z " fill="#0E0F0F" transform="translate(306.5625,309.9375)"/>
<path d="M0 0 C2.066 3.728 3.295 7.702 4.562 11.75 C4.784 12.428 5.005 13.106 5.232 13.805 C10.257 29.773 10.731 51.216 5.074 66.977 C3.868 70.372 3.182 73.714 2.5 77.25 C1.293 83.159 -0.51 88.515 -3 94 C-3.66 93.34 -4.32 92.68 -5 92 C-4.662 91.201 -4.325 90.402 -3.977 89.578 C-1.348 83.106 0.612 77.089 1.445 70.145 C1.926 67.421 2.625 65.16 3.523 62.562 C5.588 55.836 5.531 49.175 5.5 42.188 C5.5 41.511 5.5 40.835 5.501 40.139 C5.469 26.804 3.216 14.649 -1 2 C-0.67 1.34 -0.34 0.68 0 0 Z " fill="#DE8364" transform="translate(419,140)"/>
<path d="M0 0 C-2.997 1.308 -4.22 0.928 -7.398 -0.109 C-8.727 -0.649 -10.052 -1.196 -11.375 -1.75 C-32.126 -9.993 -52.987 -10.346 -74.734 -6.656 C-77.862 -6.135 -80.819 -5.845 -84 -6 C-80.109 -8.594 -76.543 -9.121 -72 -10 C-71.134 -10.188 -70.267 -10.376 -69.375 -10.57 C-45.772 -15.225 -21.392 -10.46 0 0 Z " fill="#E28E6F" transform="translate(362,78)"/>
<path d="M0 0 C6.188 -0.513 9.622 0.913 14.75 4 C15.448 4.407 16.146 4.814 16.865 5.234 C21.97 8.26 26.85 11.525 31.562 15.137 C33.926 16.993 33.926 16.993 36.25 18.457 C47.249 25.901 54.628 39.625 61 51 C60.34 51.66 59.68 52.32 59 53 C58.492 52.154 57.984 51.309 57.461 50.438 C53.6 44.054 49.735 37.784 45 32 C44.395 31.261 43.791 30.523 43.168 29.762 C39.079 24.963 34.819 21.077 29.688 17.41 C29.131 16.945 28.574 16.479 28 16 C28 15.34 28 14.68 28 14 C27.216 13.794 26.433 13.588 25.625 13.375 C21.58 11.841 18.201 9.789 14.531 7.523 C11.117 5.469 7.589 3.724 4 2 C2.666 1.335 1.332 0.669 0 0 Z " fill="#E08B6D" transform="translate(344,85)"/>
<path d="M0 0 C0.33 0 0.66 0 1 0 C1 2.97 1 5.94 1 9 C6.28 9 11.56 9 17 9 C17.33 8.34 17.66 7.68 18 7 C18.25 12.625 18.25 12.625 16 16 C10.965 18.398 7.32 17.917 2 17 C1.67 17.66 1.34 18.32 1 19 C-0.254 15.237 -0.107 11.728 -0.062 7.812 C-0.058 7.063 -0.053 6.313 -0.049 5.541 C-0.037 3.694 -0.019 1.847 0 0 Z " fill="#66ADD3" transform="translate(356,206)"/>
<path d="M0 0 C0.99 0 1.98 0 3 0 C3 23.76 3 47.52 3 72 C0.009 69.009 0.029 66.157 -0.076 62.02 C-0.053 60.918 -0.03 59.816 -0.006 58.681 C0.017 57.426 0.041 56.172 0.065 54.879 C0.08 54.215 0.095 53.55 0.11 52.865 C0.157 50.777 0.197 48.688 0.235 46.599 C0.317 42.17 0.408 37.741 0.5 33.312 C0.606 28.169 0.709 23.026 0.804 17.883 C0.843 15.823 0.889 13.763 0.935 11.704 C0.97 9.836 0.97 9.836 1.006 7.931 C1.029 6.831 1.052 5.732 1.076 4.599 C1.183 2.015 1.183 2.015 0 0 Z M-2 2 C-1.67 2.66 -1.34 3.32 -1 4 C-1.66 4.66 -2.32 5.32 -3 6 C-3.66 5.34 -4.32 4.68 -5 4 C-4.01 3.34 -3.02 2.68 -2 2 Z " fill="#1670AA" transform="translate(388,127)"/>
<path d="M0 0 C3.767 2.397 6.856 4.856 10 8 C12.133 9.235 12.133 9.235 14 10 C12.234 10.645 12.234 10.645 10 11 C8.078 10.074 8.078 10.074 6.25 8.688 C5.33 8.013 5.33 8.013 4.391 7.324 C3.932 6.887 3.473 6.45 3 6 C3 5.34 3 4.68 3 4 C2.01 3.34 1.02 2.68 0 2 C0 1.34 0 0.68 0 0 Z M15 12 C20.155 14.268 25.275 17.754 29 22 C29 22.66 29 23.32 29 24 C29.73 24.257 30.459 24.513 31.211 24.777 C34.138 26.061 36.168 27.529 38.625 29.562 C39.481 30.265 40.337 30.968 41.219 31.691 C42.137 32.453 43.054 33.215 44 34 C46.041 35.667 48.083 37.334 50.125 39 C51.75 40.333 53.376 41.666 55 43 C54.34 43.66 53.68 44.32 53 45 C52.01 44.34 51.02 43.68 50 43 C50 42.34 50 41.68 50 41 C49.072 40.783 49.072 40.783 48.125 40.562 C46 40 46 40 44 39 C44 38.34 44 37.68 44 37 C43.34 37 42.68 37 42 37 C42 36.34 42 35.68 42 35 C41.01 34.67 40.02 34.34 39 34 C38.443 33.402 37.886 32.804 37.312 32.188 C35.146 30.138 33.72 29.319 31.062 28.125 C26.932 26.175 24.766 23.663 22 20 C21.113 19.113 20.226 18.226 19.312 17.312 C17 15 17 15 15 12 Z M55 44 C57 45 57 45 57 45 Z M57 45 C59 46 59 46 59 46 Z " fill="#2C7EB3" transform="translate(256,142)"/>
<path d="M0 0 C-0.506 2.169 -1 4 -2 6 C-1.34 6.33 -0.68 6.66 0 7 C-0.928 7.351 -1.856 7.701 -2.812 8.062 C-8.649 10.557 -15.261 14.017 -19.578 18.719 C-21 20 -21 20 -25 20 C-23.628 15.137 -20.818 12.863 -16.875 10 C-16.293 9.566 -15.71 9.131 -15.11 8.684 C-3.348 0 -3.348 0 0 0 Z M0 3 C2 4 2 4 2 4 Z M0 5 C2 6 2 6 2 6 Z " fill="#B5CCDD" transform="translate(129,271)"/>
<path d="M0 0 C2.648 2.648 2.932 4.948 3.875 8.562 C7.787 22.65 14.704 34.73 24 46 C24.759 46.944 25.519 47.887 26.301 48.859 C29.719 53.089 33.089 57.212 37 61 C36.505 61.99 36.505 61.99 36 63 C28.158 56.555 28.158 56.555 26 53 C26 52.34 26 51.68 26 51 C24.515 50.505 24.515 50.505 23 50 C20.844 47.488 20.844 47.488 18.5 44.312 C17.727 43.277 16.953 42.242 16.156 41.176 C14.126 38.186 12.548 35.26 11 32 C10.444 30.935 9.889 29.87 9.316 28.773 C-0.368 10.009 -0.368 10.009 0 0 Z " fill="#E08B6E" transform="translate(199,208)"/>
<path d="M0 0 C1.155 3.464 0.802 4.173 -0.375 7.5 C-5.694 24.477 -4.903 48.002 0 65 C-0.99 64.67 -1.98 64.34 -3 64 C-3.319 62.543 -3.63 61.084 -3.938 59.625 C-4.112 58.813 -4.286 58.001 -4.465 57.164 C-6.877 42.904 -7.18 27.821 -4.688 13.562 C-4.511 12.544 -4.511 12.544 -4.331 11.506 C-3.499 7.278 -2.077 3.764 0 0 Z " fill="#E38F6F" transform="translate(213,148)"/>
<path d="M0 0 C2 1 2 1 2.612 2.584 C3.151 5.94 3.183 9.27 3.203 12.66 C3.209 13.405 3.215 14.15 3.22 14.918 C3.23 16.496 3.236 18.073 3.24 19.651 C3.25 22.03 3.281 24.408 3.312 26.787 C3.372 35.321 2.932 42.878 0 51 C-0.322 51.934 -0.643 52.867 -0.975 53.829 C-2.819 59.044 -4.743 62.452 -9 66 C-8.691 65.237 -8.381 64.474 -8.062 63.688 C-7.321 61.812 -6.638 59.913 -6 58 C-5.34 58 -4.68 58 -4 58 C-3.879 57.443 -3.758 56.886 -3.633 56.312 C-3.465 55.549 -3.298 54.786 -3.125 54 C-2.963 53.257 -2.8 52.515 -2.633 51.75 C-2.145 49.63 -1.576 47.528 -0.973 45.438 C0.214 40.681 0.254 36.13 0.195 31.25 C0.192 30.351 0.19 29.453 0.187 28.527 C0.176 25.684 0.151 22.842 0.125 20 C0.115 18.061 0.106 16.122 0.098 14.184 C0.076 9.456 0.041 4.728 0 0 Z " fill="#DD7D5B" transform="translate(412,163)"/>
<path d="M0 0 C0.606 0.349 1.212 0.699 1.836 1.059 C0.295 1.786 0.295 1.786 -1.277 2.527 C-16.636 9.894 -27.829 19.294 -39.643 31.49 C-40.806 32.69 -41.982 33.877 -43.164 35.059 C-42.659 30.742 -41.394 28.785 -38.34 25.738 C-37.558 24.956 -36.776 24.173 -35.971 23.367 C-35.148 22.564 -34.325 21.761 -33.477 20.934 C-32.673 20.123 -31.869 19.312 -31.041 18.477 C-26.98 14.458 -23.479 11.324 -18.164 9.059 C-16.474 7.925 -14.807 6.759 -13.164 5.559 C-3.284 -1.429 -3.284 -1.429 0 0 Z " fill="#E39275" transform="translate(271.1640625,86.94140625)"/>
<path d="M0 0 C0.66 0.66 1.32 1.32 2 2 C0.71 3.376 -0.627 4.708 -2 6 C-2.66 6 -3.32 6 -4 6 C-4.235 6.581 -4.469 7.163 -4.711 7.762 C-6.298 10.517 -8.098 11.892 -10.625 13.812 C-14.568 16.871 -18.371 20.016 -22.105 23.324 C-25.039 25.919 -28.022 28.456 -31 31 C-31 28 -31 28 -28.875 25.75 C-27.926 24.843 -26.978 23.935 -26 23 C-24.451 21.137 -22.93 19.257 -21.43 17.355 C-20 16 -20 16 -17 16 C-17 15.34 -17 14.68 -17 14 C-13.538 11 -13.538 11 -11 11 C-11 10.34 -11 9.68 -11 9 C-10.01 9 -9.02 9 -8 9 C-7.67 8.01 -7.34 7.02 -7 6 C-6.34 6 -5.68 6 -5 6 C-5 5.01 -5 4.02 -5 3 C-2.5 1.312 -2.5 1.312 0 0 Z " fill="#478EBB" transform="translate(359,172)"/>
<path d="M0 0 C1.98 0 3.96 0 6 0 C6 5.94 6 11.88 6 18 C4.02 18 2.04 18 0 18 C0 12.06 0 6.12 0 0 Z " fill="#0C0D0D" transform="translate(447,318)"/>
<path d="M0 0 C3 0.25 3 0.25 5 2.25 C5.25 5.75 5.25 5.75 5 9.25 C3 11.25 3 11.25 0 11.5 C-3 11.25 -3 11.25 -5 9.25 C-5.25 5.75 -5.25 5.75 -5 2.25 C-3 0.25 -3 0.25 0 0 Z " fill="#E6683D" transform="translate(252,304.75)"/>
<path d="M0 0 C2.64 0 5.28 0 8 0 C8 3.96 8 7.92 8 12 C5.36 12 2.72 12 0 12 C0 8.04 0 4.08 0 0 Z " fill="#323232" transform="translate(159,324)"/>
<path d="M0 0 C4.846 0.441 8.481 2.745 12 6 C12 6.66 12 7.32 12 8 C12.701 8.227 13.403 8.454 14.125 8.688 C17.693 10.317 20.065 12.406 23 15 C22.67 15.66 22.34 16.32 22 17 C19.475 15.918 17.994 14.994 16.125 12.938 C14.083 10.72 14.083 10.72 10.875 10.5 C9.926 10.335 8.977 10.17 8 10 C6.812 8 6.812 8 6 6 C5.01 5.67 4.02 5.34 3 5 C2.67 7.31 2.34 9.62 2 12 C0 10 0 10 -0.195 7.617 C-0.172 6.712 -0.149 5.807 -0.125 4.875 C-0.107 3.965 -0.089 3.055 -0.07 2.117 C-0.047 1.419 -0.024 0.72 0 0 Z M23 16 C23.66 16 24.32 16 25 16 C24.67 16.66 24.34 17.32 24 18 C23.67 17.34 23.34 16.68 23 16 Z " fill="#4691BE" transform="translate(229,123)"/>
<path d="M0 0 C0.33 0 0.66 0 1 0 C1 3.63 1 7.26 1 11 C-11.617 15.853 -24.988 14.1 -38 12 C-38 11.01 -38 10.02 -38 9 C-37.201 9.144 -36.402 9.289 -35.578 9.438 C-17.767 12.574 -17.767 12.574 -1 8 C-0.423 6.036 -0.423 6.036 -0.312 3.875 C-0.209 2.596 -0.106 1.317 0 0 Z " fill="#E19075" transform="translate(331,285)"/>
<path d="M0 0 C2.357 2.155 3.79 4.197 5.188 7.062 C5.532 7.755 5.876 8.447 6.23 9.16 C7 11 7 11 7 13 C7.66 13 8.32 13 9 13 C9 13.66 9 14.32 9 15 C9.99 15.33 10.98 15.66 12 16 C12.276 16.879 12.552 17.758 12.836 18.664 C14.303 22.869 16.564 25.229 19.625 28.375 C20.141 28.92 20.656 29.466 21.188 30.027 C22.45 31.36 23.724 32.681 25 34 C22 34 22 34 20.281 32.574 C19.693 31.952 19.106 31.329 18.5 30.688 C17.912 30.073 17.324 29.458 16.719 28.824 C16.152 28.222 15.584 27.62 15 27 C14.504 26.526 14.007 26.051 13.496 25.562 C7.461 19.259 0 9.083 0 0 Z " fill="#DD8567" transform="translate(216,223)"/>
<path d="M0 0 C0.66 0.33 1.32 0.66 2 1 C-1.154 3.542 -4.337 6.04 -7.554 8.501 C-9.827 10.239 -12.092 11.987 -14.357 13.735 C-15.855 14.888 -17.357 16.036 -18.859 17.184 C-23.881 21.086 -28.049 25.01 -32 30 C-32 25.251 -28.827 23.064 -25.699 19.695 C-18.84 12.846 -11.163 7.187 -3 2 C-2.01 1.34 -1.02 0.68 0 0 Z M-35 30 C-34.34 30.33 -33.68 30.66 -33 31 C-34.485 31.99 -34.485 31.99 -36 33 C-35.67 32.01 -35.34 31.02 -35 30 Z " fill="#E18F73" transform="translate(255,80)"/>
<path d="M0 0 C2 1 2 1 2 1 Z M-4 4 C-3.67 4.66 -3.34 5.32 -3 6 C-4.245 7.13 -5.496 8.254 -6.75 9.375 C-7.446 10.001 -8.142 10.628 -8.859 11.273 C-11 13 -11 13 -13.23 14.098 C-13.814 14.395 -14.398 14.693 -15 15 C-15.362 16.326 -15.697 17.659 -16 19 C-16.99 19.33 -17.98 19.66 -19 20 C-20.209 22 -20.209 22 -21 24 C-22.32 24 -23.64 24 -25 24 C-27.251 25.917 -27.251 25.917 -29 28 C-29.66 27.67 -30.32 27.34 -31 27 C-22.331 18.906 -13.542 11.068 -4 4 Z " fill="#619EC4" transform="translate(351,157)"/>
<path d="M0 0 C0.66 1.32 1.32 2.64 2 4 C12.048 4.165 12.048 4.165 22 3 C21.67 6.3 21.34 9.6 21 13 C20.67 12.01 20.34 11.02 20 10 C19.01 9.67 18.02 9.34 17 9 C17.33 8.67 17.66 8.34 18 8 C12.06 7.67 6.12 7.34 0 7 C0 4.69 0 2.38 0 0 Z " fill="#66A6CA" transform="translate(391,196)"/>
<path d="M0 0 C-0.33 0.99 -0.66 1.98 -1 3 C-1.99 3 -2.98 3 -4 3 C-4.33 3.66 -4.66 4.32 -5 5 C-6.286 4.723 -6.286 4.723 -7.598 4.441 C-11.189 3.975 -13.888 4.286 -17.438 4.938 C-22.065 5.726 -26.317 6.218 -31 6 C-28.011 4.346 -25.328 3.536 -21.973 2.93 C-21.016 2.756 -20.058 2.582 -19.072 2.402 C-18.079 2.228 -17.086 2.054 -16.062 1.875 C-14.578 1.602 -14.578 1.602 -13.064 1.324 C-8.64 0.533 -4.507 -0.104 0 0 Z M-35 6 C-31 7 -31 7 -31 7 Z M-37 7 C-35 8 -35 8 -35 8 Z " fill="#57D5F2" transform="translate(339,221)"/>
<path d="M0 0 C1.333 0.667 2.667 1.333 4 2 C4.639 2.268 5.279 2.536 5.938 2.812 C11.617 6.082 15.763 12.079 20 17 C15.684 17 14.072 14.867 11 12 C11 11.34 11 10.68 11 10 C10.438 9.734 9.876 9.469 9.297 9.195 C6.821 7.907 4.562 6.439 2.25 4.875 C1.451 4.336 0.652 3.797 -0.172 3.242 C-0.775 2.832 -1.378 2.422 -2 2 C-1.34 1.34 -0.68 0.68 0 0 Z " fill="#438CBB" transform="translate(286,187)"/>
<path d="M0 0 C0.66 0 1.32 0 2 0 C1.67 0.66 1.34 1.32 1 2 C0.67 1.34 0.34 0.68 0 0 Z M2 2 C5.838 3.564 8.167 6.025 11 9 C11.763 9.722 12.526 10.444 13.312 11.188 C15 13 15 13 15 15 C15.99 15.33 16.98 15.66 18 16 C19.824 18.066 19.824 18.066 21.688 20.562 C22.31 21.389 22.933 22.215 23.574 23.066 C24.045 23.704 24.515 24.343 25 25 C22 25 22 25 19.695 22.941 C16.688 19.66 13.758 16.328 10.875 12.938 C10.35 12.326 9.826 11.714 9.285 11.084 C6.756 8.123 4.283 5.157 2 2 Z " fill="#E39479" transform="translate(383,92)"/>
<path d="M0 0 C0.33 0 0.66 0 1 0 C1.098 6.152 1.098 6.152 1 8 C0 9 0 9 -1.766 9.114 C-2.515 9.108 -3.264 9.103 -4.035 9.098 C-4.844 9.094 -5.653 9.091 -6.486 9.088 C-7.336 9.08 -8.187 9.071 -9.062 9.062 C-9.917 9.058 -10.771 9.053 -11.65 9.049 C-13.767 9.037 -15.883 9.019 -18 9 C-18 7.35 -18 5.7 -18 4 C-17.434 4.329 -16.868 4.657 -16.285 4.996 C-13.756 6.107 -12.175 6.178 -9.438 6.062 C-6.472 5.947 -4.882 6.039 -2 7 C-2 5.35 -2 3.7 -2 2 C-1.34 2 -0.68 2 0 2 C0 1.34 0 0.68 0 0 Z " fill="#5393BD" transform="translate(391,218)"/>
<path d="M0 0 C3.767 2.397 6.856 4.856 10 8 C12.133 9.235 12.133 9.235 14 10 C12.234 10.645 12.234 10.645 10 11 C8.078 10.074 8.078 10.074 6.25 8.688 C5.33 8.013 5.33 8.013 4.391 7.324 C3.932 6.887 3.473 6.45 3 6 C3 5.34 3 4.68 3 4 C2.01 3.34 1.02 2.68 0 2 C0 1.34 0 0.68 0 0 Z M15 12 C18.817 13.555 21.192 16.036 24 19 C23.01 19.495 23.01 19.495 22 20 C19.352 17.422 17.056 15.084 15 12 Z M24 19 C24.66 19 25.32 19 26 19 C25.67 19.66 25.34 20.32 25 21 C24.67 20.34 24.34 19.68 24 19 Z M27 22 C27.66 22 28.32 22 29 22 C28.67 22.66 28.34 23.32 28 24 C27.67 23.34 27.34 22.68 27 22 Z " fill="#76ADCE" transform="translate(256,142)"/>
<path d="M0 0 C-1 2 -1 2 -3.19 2.762 C-4.614 3.114 -4.614 3.114 -6.066 3.473 C-7.632 3.862 -7.632 3.862 -9.229 4.26 C-10.329 4.525 -11.429 4.79 -12.562 5.062 C-14.172 5.466 -14.172 5.466 -15.814 5.877 C-21.54 7.283 -27.132 8.424 -33 9 C-32 7 -32 7 -29.297 6.035 C-6.429 -0.236 -6.429 -0.236 0 0 Z " fill="#57D5F2" transform="translate(268,227)"/>
<path d="M0 0 C0 0.99 0 1.98 0 3 C-1.728 3.339 -3.458 3.671 -5.188 4 C-6.632 4.278 -6.632 4.278 -8.105 4.562 C-10.793 4.969 -13.288 5.079 -16 5 C-15.67 3.68 -15.34 2.36 -15 1 C-10.039 -0.323 -5.089 -0.089 0 0 Z " fill="#57D5F2" transform="translate(373,216)"/>
<path d="M0 0 C0.66 0.66 1.32 1.32 2 2 C1.613 3.027 1.227 4.055 0.828 5.113 C-2.159 13.06 -5.123 21.013 -8 29 C-9.187 25.558 -8.806 23.567 -7.637 20.156 C-7.327 19.24 -7.017 18.323 -6.697 17.379 C-6.197 15.954 -6.197 15.954 -5.688 14.5 C-5.205 13.075 -5.205 13.075 -4.713 11.621 C-3.34 7.612 -1.971 3.759 0 0 Z " fill="#DF8769" transform="translate(206,133)"/>
<path d="M0 0 C0 3.508 -0.748 4.477 -2.625 7.375 C-6.325 13.33 -9.17 19.596 -12 26 C-12.66 25.01 -13.32 24.02 -14 23 C-5.866 5.866 -5.866 5.866 0 0 Z " fill="#E29276" transform="translate(227,122)"/>
<path d="M0 0 C2.648 2.648 2.932 4.948 3.875 8.562 C5.454 14.326 7.341 19.653 10 25 C9.34 25.66 8.68 26.32 8 27 C0.148 9.328 0.148 9.328 0 0 Z " fill="#DD7F5F" transform="translate(199,208)"/>
<path d="M0 0 C2 -0.043 4 -0.041 6 0 C7 1 7 1 7.062 4.062 C7.042 5.032 7.021 6.001 7 7 C4.69 7 2.38 7 0 7 C-1.125 2.25 -1.125 2.25 0 0 Z " fill="#282A2B" transform="translate(447,310)"/>
<path d="M0 0 C9.484 1.77 17.413 4.657 26 9 C21.495 10.455 18.341 8.901 14.125 7.188 C12.732 6.638 11.339 6.09 9.945 5.543 C9.28 5.279 8.616 5.015 7.931 4.744 C5.317 3.737 2.666 2.857 0 2 C0 1.34 0 0.68 0 0 Z " fill="#E28F71" transform="translate(336,69)"/>
<path d="M0 0 C0 3 0 3 -1.609 4.719 C-2.316 5.307 -3.022 5.894 -3.75 6.5 C-4.446 7.088 -5.142 7.676 -5.859 8.281 C-8 10 -8 10 -10.219 11.363 C-12.716 13.658 -12.593 15.359 -12.75 18.688 C-12.807 19.681 -12.863 20.675 -12.922 21.699 C-12.948 22.458 -12.973 23.218 -13 24 C-12.34 24.33 -11.68 24.66 -11 25 C-11.99 25 -12.98 25 -14 25 C-14.746 20.143 -15.028 15.829 -14 11 C-10.447 7.089 -6.548 4.696 -2 2 C-1.34 1.34 -0.68 0.68 0 0 Z " fill="#E39376" transform="translate(376,261)"/>
<path d="M0 0 C3.403 1.059 6.014 2.009 9 4 C9 4.66 9 5.32 9 6 C12.375 4.814 14.647 3.724 17 1 C17.66 1.66 18.32 2.32 19 3 C17.793 3.897 17.793 3.897 16.562 4.812 C13.777 6.809 13.777 6.809 13 10 C10 10 10 10 8.535 8.539 C8.049 7.907 7.563 7.276 7.062 6.625 C4.934 3.867 3.219 2.376 0 1 C0 0.67 0 0.34 0 0 Z " fill="#1470AD" transform="translate(305,203)"/>
<path d="M0 0 C3.111 1.393 5.326 3.056 7.812 5.375 C11.336 8.542 14.805 10.815 19 13 C19 13.99 19 14.98 19 16 C14.537 13.913 10.884 10.996 7 8 C6.051 7.299 5.102 6.598 4.125 5.875 C2.013 4.012 1.021 2.599 0 0 Z " fill="#E09075" transform="translate(241,258)"/>
<path d="M0 0 C0.33 0 0.66 0 1 0 C1 2.97 1 5.94 1 9 C6.28 9 11.56 9 17 9 C17.33 8.34 17.66 7.68 18 7 C18 8.65 18 10.3 18 12 C17.67 11.34 17.34 10.68 17 10 C14.538 10.228 12.083 10.481 9.625 10.75 C8.926 10.812 8.228 10.874 7.508 10.938 C5.216 11.161 5.216 11.161 2 12 C1.34 13.32 0.68 14.64 0 16 C0 10.72 0 5.44 0 0 Z " fill="#4F98C2" transform="translate(356,206)"/>
<path d="M0 0 C2.469 1.224 3.769 2.444 4.831 4.997 C5.593 7.504 6.251 10.018 6.875 12.562 C7.112 13.438 7.349 14.314 7.594 15.217 C8.829 20.051 8.829 20.051 9 22 C8.34 22.66 7.68 23.32 7 24 C6.019 20.75 5.041 17.5 4.062 14.25 C3.785 13.33 3.507 12.409 3.221 11.461 C2.953 10.571 2.686 9.682 2.41 8.766 C2.164 7.949 1.918 7.132 1.664 6.29 C1.059 4.203 0.511 2.112 0 0 Z " fill="#E18C6D" transform="translate(404,138)"/>
<path d="M0 0 C0.66 0.33 1.32 0.66 2 1 C-0.124 4.19 -2.051 5.855 -5.438 7.625 C-6.58 8.232 -6.58 8.232 -7.746 8.852 C-8.49 9.231 -9.234 9.61 -10 10 C-10.692 10.379 -11.384 10.758 -12.098 11.148 C-14 12 -14 12 -17 12 C-16.67 11.01 -16.34 10.02 -16 9 C-15.196 8.752 -14.391 8.505 -13.562 8.25 C-8.402 6.439 -4.372 3.231 0 0 Z " fill="#DD8161" transform="translate(380,273)"/>
<path d="M0 0 C-0.948 2.352 -1.516 3.716 -3.74 5.021 C-4.764 5.376 -4.764 5.376 -5.809 5.738 C-6.929 6.132 -6.929 6.132 -8.072 6.533 C-8.853 6.79 -9.633 7.048 -10.438 7.312 C-11.214 7.589 -11.991 7.866 -12.791 8.15 C-18.595 10.135 -18.595 10.135 -22 9 C-18.711 7.494 -15.418 5.996 -12.125 4.5 C-11.188 4.071 -10.251 3.641 -9.285 3.199 C-8.389 2.793 -7.493 2.387 -6.57 1.969 C-5.743 1.592 -4.915 1.215 -4.063 0.826 C-2 0 -2 0 0 0 Z " fill="#B6C3CB" transform="translate(460,271)"/>
<path d="M0 0 C0.66 0.66 1.32 1.32 2 2 C-1.63 6.29 -5.26 10.58 -9 15 C-9 11.409 -8.104 10.252 -6.125 7.312 C-5.591 6.504 -5.058 5.696 -4.508 4.863 C-4.01 4.248 -3.513 3.634 -3 3 C-2.34 3 -1.68 3 -1 3 C-0.67 2.01 -0.34 1.02 0 0 Z M-12 15 C-11.01 15.495 -11.01 15.495 -10 16 C-10.99 16.495 -10.99 16.495 -12 17 C-12 16.34 -12 15.68 -12 15 Z M-16 19 C-15.01 19.495 -15.01 19.495 -14 20 C-14.99 20.495 -14.99 20.495 -16 21 C-16 20.34 -16 19.68 -16 19 Z M-18 21 C-16 22 -16 22 -16 22 Z M-20 22 C-18 23 -18 23 -18 23 Z " fill="#E59C82" transform="translate(398,237)"/>
<path d="M0 0 C0.722 0.598 1.444 1.196 2.188 1.812 C4.865 3.999 4.865 3.999 7.5 5.438 C10.439 7.275 12.625 9.489 15 12 C14.01 12.495 14.01 12.495 13 13 C12.01 12.34 11.02 11.68 10 11 C10 10.34 10 9.68 10 9 C9.072 8.783 9.072 8.783 8.125 8.562 C6 8 6 8 4 7 C4 6.34 4 5.68 4 5 C3.34 5 2.68 5 2 5 C2 4.34 2 3.68 2 3 C1.01 2.67 0.02 2.34 -1 2 C-0.67 1.34 -0.34 0.68 0 0 Z M15 12 C17 13 17 13 17 13 Z M17 13 C19 14 19 14 19 14 Z " fill="#1A71AA" transform="translate(296,174)"/>
<path d="M0 0 C2.737 8.21 -2.557 19.415 -6 27 C-6.66 26.34 -7.32 25.68 -8 25 C-7.662 24.189 -7.325 23.378 -6.977 22.543 C-4.367 16.065 -2.359 9.967 -1.359 3.047 C-1 1 -1 1 0 0 Z " fill="#D97654" transform="translate(422,207)"/>
<path d="M0 0 C2.25 0.125 2.25 0.125 5 1 C7.312 4.062 7.312 4.062 9 7 C7.02 6.34 5.04 5.68 3 5 C2.67 7.31 2.34 9.62 2 12 C0 10 0 10 -0.195 7.617 C-0.172 6.712 -0.149 5.807 -0.125 4.875 C-0.107 3.965 -0.089 3.055 -0.07 2.117 C-0.047 1.419 -0.024 0.72 0 0 Z " fill="#1670AA" transform="translate(229,123)"/>
<path d="M0 0 C0 0.66 0 1.32 0 2 C-3.421 1.474 -6.765 0.82 -10.125 0 C-15.692 -1.275 -21.312 -1.634 -27 -2 C-27 -2.33 -27 -2.66 -27 -3 C-18.037 -4.518 -8.291 -4.145 0 0 Z " fill="#E69B7E" transform="translate(344,83)"/>
<path d="M0 0 C2.277 3.416 4.189 6.947 6.125 10.562 C6.498 11.248 6.87 11.933 7.254 12.639 C10 17.764 10 17.764 10 20 C9.34 20 8.68 20 8 20 C6.463 17.238 4.948 14.464 3.438 11.688 C2.781 10.509 2.781 10.509 2.111 9.307 C1.702 8.549 1.293 7.792 0.871 7.012 C0.489 6.315 0.107 5.619 -0.287 4.901 C-1 3 -1 3 0 0 Z " fill="#E28B6C" transform="translate(409,120)"/>
<path d="M0 0 C0.33 0 0.66 0 1 0 C1 3.3 1 6.6 1 10 C-2.494 9.127 -4.686 8.195 -7.75 6.438 C-8.549 5.982 -9.348 5.527 -10.172 5.059 C-11.077 4.535 -11.077 4.535 -12 4 C-11.34 3.34 -10.68 2.68 -10 2 C-7.36 3.32 -4.72 4.64 -2 6 C-1.34 4.02 -0.68 2.04 0 0 Z " fill="#E5997D" transform="translate(259,276)"/>
<path d="M0 0 C4.432 1.519 8.03 3.926 11.812 6.625 C12.41 7.045 13.007 7.465 13.623 7.898 C15.085 8.928 16.543 9.963 18 11 C17.34 11.66 16.68 12.32 16 13 C15.264 12.457 14.528 11.915 13.77 11.355 C12.794 10.64 11.818 9.925 10.812 9.188 C9.85 8.48 8.887 7.772 7.895 7.043 C5.064 4.976 5.064 4.976 2.137 3.363 C1.432 2.913 0.726 2.464 0 2 C0 1.34 0 0.68 0 0 Z " fill="#DF8465" transform="translate(364,79)"/>
<path d="M0 0 C1.454 0.031 1.454 0.031 2.938 0.062 C1.978 0.712 1.978 0.712 1 1.375 C-1.33 2.975 -1.33 2.975 -2.062 6.062 C-2.208 7.542 -2.309 9.027 -2.379 10.512 C-2.421 11.359 -2.463 12.207 -2.506 13.08 C-2.545 13.961 -2.584 14.842 -2.625 15.75 C-2.668 16.643 -2.711 17.535 -2.756 18.455 C-2.862 20.657 -2.964 22.86 -3.062 25.062 C-3.392 25.062 -3.723 25.062 -4.062 25.062 C-4.091 21.083 -4.109 17.104 -4.125 13.125 C-4.133 11.989 -4.142 10.852 -4.15 9.682 C-4.154 8.602 -4.157 7.522 -4.16 6.41 C-4.165 5.41 -4.171 4.41 -4.176 3.379 C-4.002 -0.175 -3.632 0.074 0 0 Z " fill="#7A7B7C" transform="translate(293.0625,305.9375)"/>
<path d="M0 0 C-3.708 2.351 -7.486 2.432 -11.75 2.625 C-12.796 2.683 -12.796 2.683 -13.863 2.742 C-15.575 2.836 -17.288 2.919 -19 3 C-18.67 2.34 -18.34 1.68 -18 1 C-15.488 0.332 -15.488 0.332 -12.312 -0.188 C-10.76 -0.456 -10.76 -0.456 -9.176 -0.73 C-5.901 -1.008 -3.204 -0.677 0 0 Z " fill="#60ADD5" transform="translate(334,225)"/>
<path d="M0 0 C1.335 4.006 0.23 6.991 -0.812 10.938 C-0.991 11.654 -1.17 12.37 -1.354 13.107 C-2.252 16.608 -3.188 19.859 -5 23 C-4.76 14.547 -4.232 7.44 0 0 Z " fill="#DC8263" transform="translate(213,148)"/>
<path d="M0 0 C0.33 0.66 0.66 1.32 1 2 C0.34 1.67 -0.32 1.34 -1 1 C-0.67 0.67 -0.34 0.34 0 0 Z M-7 7 C-6.67 7.66 -6.34 8.32 -6 9 C-6.66 8.67 -7.32 8.34 -8 8 C-7.67 7.67 -7.34 7.34 -7 7 Z M-10 10 C-9.67 10.99 -9.34 11.98 -9 13 C-10.215 14.824 -10.215 14.824 -11.938 16.688 C-12.503 17.31 -13.069 17.933 -13.652 18.574 C-14.097 19.045 -14.542 19.515 -15 20 C-15.684 18.203 -15.684 18.203 -16 16 C-14.785 14.297 -14.785 14.297 -13.062 12.75 C-12.214 11.969 -12.214 11.969 -11.348 11.172 C-10.903 10.785 -10.458 10.398 -10 10 Z " fill="#DD8365" transform="translate(244,102)"/>
<path d="M0 0 C0.99 0.495 0.99 0.495 2 1 C1.01 1.495 1.01 1.495 0 2 C0 1.34 0 0.68 0 0 Z M-3 2 C-2.01 2.33 -1.02 2.66 0 3 C-1.285 4.506 -2.578 6.005 -3.875 7.5 C-4.954 8.753 -4.954 8.753 -6.055 10.031 C-6.697 10.681 -7.339 11.331 -8 12 C-8.66 12 -9.32 12 -10 12 C-10 12.66 -10 13.32 -10 14 C-10.66 14 -11.32 14 -12 14 C-10.63 10.839 -10.011 10.007 -7 8 C-5.959 6.359 -4.955 4.693 -4 3 C-3.67 2.67 -3.34 2.34 -3 2 Z " fill="#3586B6" transform="translate(360,149)"/>
<path d="M0 0 C4.066 1.355 5.135 4.04 7.188 7.562 C7.556 8.178 7.924 8.794 8.303 9.428 C9.21 10.947 10.106 12.473 11 14 C10.34 14.66 9.68 15.32 9 16 C7.684 13.898 6.372 11.794 5.062 9.688 C4.689 9.093 4.316 8.498 3.932 7.885 C2.312 5.273 0.976 2.928 0 0 Z " fill="#E09075" transform="translate(394,122)"/>
<path d="M0 0 C2.64 0 5.28 0 8 0 C7.67 0.66 7.34 1.32 7 2 C5.68 2.33 4.36 2.66 3 3 C2.34 6.3 1.68 9.6 1 13 C0.67 13 0.34 13 0 13 C0 8.71 0 4.42 0 0 Z " fill="#E89A7C" transform="translate(292,284)"/>
<path d="M0 0 C0.66 0.33 1.32 0.66 2 1 C0.882 2.339 -0.245 3.671 -1.375 5 C-2.315 6.114 -2.315 6.114 -3.273 7.25 C-4.128 8.116 -4.128 8.116 -5 9 C-5.66 9 -6.32 9 -7 9 C-7 9.66 -7 10.32 -7 11 C-8.626 12.382 -10.293 13.719 -12 15 C-12.66 14.67 -13.32 14.34 -14 14 C-9.333 9.333 -4.667 4.667 0 0 Z " fill="#E19177" transform="translate(395,260)"/>
<path d="M0 0 C1.32 0.33 2.64 0.66 4 1 C0.04 3.475 0.04 3.475 -4 6 C-2 2 -2 2 0 0 Z M-6 6 C-5.34 6.33 -4.68 6.66 -4 7 C-7.465 9.97 -7.465 9.97 -11 13 C-9.383 9.765 -8.524 8.294 -6 6 Z M-13 13 C-12.34 13.33 -11.68 13.66 -11 14 C-12.485 14.99 -12.485 14.99 -14 16 C-13.67 15.01 -13.34 14.02 -13 13 Z " fill="#E9B4A1" transform="translate(249,98)"/>
<path d="M0 0 C2 2 2 2 2.266 5.117 C2.26 6.357 2.255 7.597 2.25 8.875 C2.255 10.11 2.26 11.345 2.266 12.617 C2.022 15.722 1.64 17.41 0 20 C0 19.01 0 18.02 0 17 C-0.66 16.67 -1.32 16.34 -2 16 C-1.67 15.134 -1.34 14.268 -1 13.375 C0.176 9.407 0.905 5.81 -1 2 C-0.67 1.34 -0.34 0.68 0 0 Z " fill="#54778C" transform="translate(268,221)"/>
<path d="M0 0 C0.33 0 0.66 0 1 0 C1.073 1.16 1.073 1.16 1.148 2.344 C1.587 8.46 2.3 14.107 4 20 C3.01 19.67 2.02 19.34 1 19 C-1.481 6.515 -1.481 6.515 0 0 Z " fill="#E49577" transform="translate(209,193)"/>
<path d="M0 0 C0.33 0 0.66 0 1 0 C1.027 1.812 1.046 3.625 1.062 5.438 C1.074 6.447 1.086 7.456 1.098 8.496 C1 11 1 11 0 12 C-2.186 12.073 -4.375 12.084 -6.562 12.062 C-8.359 12.049 -8.359 12.049 -10.191 12.035 C-11.118 12.024 -12.045 12.012 -13 12 C-13 11.67 -13 11.34 -13 11 C-12.385 10.951 -11.77 10.902 -11.137 10.852 C-10.328 10.777 -9.52 10.702 -8.688 10.625 C-7.887 10.555 -7.086 10.486 -6.262 10.414 C-3.728 10.104 -3.728 10.104 -1 8 C-0.423 6.036 -0.423 6.036 -0.312 3.875 C-0.209 2.596 -0.106 1.317 0 0 Z " fill="#E39577" transform="translate(331,285)"/>
<path d="M0 0 C0.66 0.66 1.32 1.32 2 2 C-1.465 4.97 -1.465 4.97 -5 8 C-3.475 4.95 -2.071 2.636 0 0 Z M-7 10 C-7 13 -7 13 -7 13 Z " fill="#E59B81" transform="translate(218,113)"/>
<path d="M0 0 C3.52 3.259 6.528 6.886 9 11 C9 11.66 9 12.32 9 13 C8.34 13 7.68 13 7 13 C5.559 11.218 4.195 9.373 2.875 7.5 C2.151 6.479 1.426 5.458 0.68 4.406 C0.125 3.612 -0.429 2.818 -1 2 C-0.67 1.34 -0.34 0.68 0 0 Z " fill="#DB7C5D" transform="translate(386,109)"/>
<path d="M0 0 C0.99 0.33 1.98 0.66 3 1 C0.147 3.932 -2.651 6.643 -6 9 C-6.66 8.67 -7.32 8.34 -8 8 C-5.36 5.36 -2.72 2.72 0 0 Z M-9 9 C-8.67 9.66 -8.34 10.32 -8 11 C-8.66 10.67 -9.32 10.34 -10 10 C-9.67 9.67 -9.34 9.34 -9 9 Z " fill="#589CC5" transform="translate(371,162)"/>
<path d="M0 0 C0 3.444 -0.796 4.748 -2.5 7.688 C-2.964 8.496 -3.428 9.304 -3.906 10.137 C-4.267 10.752 -4.628 11.366 -5 12 C-5.99 12 -6.98 12 -8 12 C-7.01 10.02 -6.02 8.04 -5 6 C-4.34 6 -3.68 6 -3 6 C-2.814 5.072 -2.814 5.072 -2.625 4.125 C-2 2 -2 2 0 0 Z " fill="#E08B6D" transform="translate(414,234)"/>
<path d="M0 0 C3.653 1.25 4.781 1.671 7 5 C4.116 3.707 2.128 2.341 0 0 Z M9 4 C11.5 6.312 11.5 6.312 14 9 C14 9.99 14 10.98 14 12 C11.69 10.02 9.38 8.04 7 6 C7.66 5.34 8.32 4.68 9 4 Z " fill="#5C9DC3" transform="translate(268,175)"/>
<path d="M0 0 C4.203 2.639 7.566 5.364 11 9 C10.67 9.66 10.34 10.32 10 11 C8.828 10.217 7.662 9.423 6.5 8.625 C5.85 8.184 5.201 7.743 4.531 7.289 C4.026 6.864 3.521 6.438 3 6 C3 5.34 3 4.68 3 4 C2.01 3.34 1.02 2.68 0 2 C0 1.34 0 0.68 0 0 Z " fill="#4C90BB" transform="translate(256,142)"/>
<path d="M0 0 C1.132 0.908 2.255 1.827 3.375 2.75 C4.001 3.26 4.628 3.771 5.273 4.297 C7.083 6.082 8.001 7.679 9 10 C5.553 8.468 2.747 6.594 0 4 C0 2.68 0 1.36 0 0 Z " fill="#5397C1" transform="translate(297,195)"/>
<path d="M0 0 C2.58 0.293 3.718 0.69 5.484 2.629 C5.902 3.267 6.32 3.905 6.75 4.562 C7.178 5.203 7.606 5.844 8.047 6.504 C8.361 6.998 8.676 7.491 9 8 C8.01 8.495 8.01 8.495 7 9 C7 8.34 7 7.68 7 7 C6.423 6.752 5.845 6.505 5.25 6.25 C2.7 4.833 0.982 3.124 -1 1 C-0.67 0.67 -0.34 0.34 0 0 Z " fill="#4489B7" transform="translate(249,158)"/>
<path d="M0 0 C0.33 0.66 0.66 1.32 1 2 C0.268 4.072 -0.559 6.111 -1.438 8.125 C-1.911 9.221 -2.384 10.316 -2.871 11.445 C-3.244 12.288 -3.616 13.131 -4 14 C-4.66 13.01 -5.32 12.02 -6 11 C-5.19 9.353 -4.377 7.707 -3.562 6.062 C-3.11 5.146 -2.658 4.229 -2.191 3.285 C-1 1 -1 1 0 0 Z " fill="#DE8669" transform="translate(219,134)"/>
<path d="M0 0 C0 0.99 0 1.98 0 3 C-2.375 4.75 -2.375 4.75 -5 6 C-5.66 5.67 -6.32 5.34 -7 5 C-2.25 0 -2.25 0 0 0 Z M-9 6 C-8.01 6.495 -8.01 6.495 -7 7 C-7.99 7.495 -7.99 7.495 -9 8 C-9 7.34 -9 6.68 -9 6 Z M-11 8 C-10.34 8.33 -9.68 8.66 -9 9 C-10.32 9.33 -11.64 9.66 -13 10 C-12.34 9.34 -11.68 8.68 -11 8 Z " fill="#85ADC4" transform="translate(391,124)"/>
<path d="M0 0 C2.31 1.65 4.62 3.3 7 5 C6.34 5.66 5.68 6.32 5 7 C3.291 5.377 1.626 3.707 0 2 C0 1.34 0 0.68 0 0 Z M7 6 C9 7 9 7 9 7 Z M9 7 C11 8 11 8 11 8 Z " fill="#70A9CB" transform="translate(304,180)"/>
<path d="M0 0 C2.782 0.376 4.588 0.673 6.812 2.438 C8 4 8 4 8 6 C4.634 4.557 2.49 2.667 0 0 Z " fill="#6BA4C8" transform="translate(258,167)"/>
<path d="M0 0 C-6.769 4.769 -6.769 4.769 -10 5 C-10.66 4.34 -11.32 3.68 -12 3 C-10.568 2.301 -9.129 1.616 -7.688 0.938 C-6.487 0.363 -6.487 0.363 -5.262 -0.223 C-3 -1 -3 -1 0 0 Z " fill="#E49578" transform="translate(269,76)"/>
<path d="M0 0 C3.342 1.894 3.98 2.941 5.25 6.688 C5.498 7.781 5.745 8.874 6 10 C5.01 10.495 5.01 10.495 4 11 C3.329 9.544 2.663 8.085 2 6.625 C1.629 5.813 1.257 5.001 0.875 4.164 C0 2 0 2 0 0 Z " fill="#E3977C" transform="translate(203,224)"/>
<path d="M0 0 C0.66 0.66 1.32 1.32 2 2 C0.879 2.839 -0.247 3.671 -1.375 4.5 C-2.315 5.196 -2.315 5.196 -3.273 5.906 C-5 7 -5 7 -7 7 C-7 6.34 -7 5.68 -7 5 C-6.402 4.732 -5.804 4.464 -5.188 4.188 C-3.028 3.015 -1.642 1.806 0 0 Z " fill="#2D82B6" transform="translate(322,204)"/>
<path d="M0 0 C2.971 2.546 4.478 5.422 6 9 C5.67 9.66 5.34 10.32 5 11 C0.077 5.708 0.077 5.708 -0.312 2.125 C-0.209 1.424 -0.106 0.722 0 0 Z " fill="#E69E83" transform="translate(216,223)"/>
<path d="M0 0 C1.65 0.99 3.3 1.98 5 3 C4.67 3.66 4.34 4.32 4 5 C2.68 4.34 1.36 3.68 0 3 C0 2.01 0 1.02 0 0 Z M5 4 C5.66 4 6.32 4 7 4 C6.67 4.66 6.34 5.32 6 6 C5.67 5.34 5.34 4.68 5 4 Z " fill="#65A4CA" transform="translate(247,135)"/>
<path d="M0 0 C2.179 3.268 3.498 6.381 5 10 C4.34 10 3.68 10 3 10 C2.303 8.713 1.618 7.421 0.938 6.125 C0.363 5.046 0.363 5.046 -0.223 3.945 C-0.479 3.303 -0.736 2.661 -1 2 C-0.67 1.34 -0.34 0.68 0 0 Z " fill="#E49C82" transform="translate(409,120)"/>
<path d="M0 0 C2.438 0.375 2.438 0.375 5 1 C5.33 1.66 5.66 2.32 6 3 C4.68 3 3.36 3 2 3 C1.67 5.31 1.34 7.62 1 10 C0.67 10 0.34 10 0 10 C0 6.7 0 3.4 0 0 Z " fill="#96C0D6" transform="translate(229,123)"/>
<path d="M0 0 C4.877 1.355 6.486 3.717 9 8 C4.123 6.645 2.514 4.283 0 0 Z " fill="#E08665" transform="translate(399,110)"/>
<path d="M0 0 C5.94 0.99 5.94 0.99 12 2 C12 2.33 12 2.66 12 3 C8.04 3 4.08 3 0 3 C0 2.01 0 1.02 0 0 Z " fill="#D7704F" transform="translate(293,294)"/>
<path d="M0 0 C2.622 1.049 3.794 1.649 5.25 4.125 C5.498 4.744 5.745 5.363 6 6 C4.125 5.812 4.125 5.812 2 5 C0.75 2.438 0.75 2.438 0 0 Z " fill="#DC7C5B" transform="translate(220,253)"/>
<path d="M0 0 C3.27 0.564 4.826 1.5 7 4 C4 4 4 4 1.812 2 C1.214 1.34 0.616 0.68 0 0 Z " fill="#5F9AC2" transform="translate(290,170)"/>
<path d="M0 0 C0.66 0 1.32 0 2 0 C2 0.66 2 1.32 2 2 C2.99 2.33 3.98 2.66 5 3 C4.67 4.32 4.34 5.64 4 7 C0 1.125 0 1.125 0 0 Z " fill="#BA9C92" transform="translate(223,236)"/>
<path d="M0 0 C1.98 0.99 1.98 0.99 4 2 C4 2.66 4 3.32 4 4 C2.68 3.34 1.36 2.68 0 2 C0 1.34 0 0.68 0 0 Z M4 4 C6 5 6 5 6 5 Z M7 6 C7.66 6 8.32 6 9 6 C8.67 6.66 8.34 7.32 8 8 C7.67 7.34 7.34 6.68 7 6 Z M9 8 C11 9 11 9 11 9 Z " fill="#136EAA" transform="translate(266,171)"/>
<path d="M0 0 C1.65 0.99 3.3 1.98 5 3 C3.68 3.33 2.36 3.66 1 4 C0.67 2.68 0.34 1.36 0 0 Z M5 4 C5.66 4.66 6.32 5.32 7 6 C6.34 6 5.68 6 5 6 C5 5.34 5 4.68 5 4 Z " fill="#156FAA" transform="translate(267,152)"/>
<path d="M0 0 C0.66 0.66 1.32 1.32 2 2 C-0.75 6.875 -0.75 6.875 -3 8 C-1.125 2.25 -1.125 2.25 0 0 Z " fill="#E89D80" transform="translate(206,133)"/>
<path d="M0 0 C0.66 0.33 1.32 0.66 2 1 C0.35 2.65 -1.3 4.3 -3 6 C-3.99 5.67 -4.98 5.34 -6 5 C-4.02 3.35 -2.04 1.7 0 0 Z " fill="#DC8161" transform="translate(258,92)"/>
<path d="M0 0 C3.96 2.475 3.96 2.475 8 5 C7.34 5.66 6.68 6.32 6 7 C3 5.188 3 5.188 0 3 C0 2.01 0 1.02 0 0 Z " fill="#E39A80" transform="translate(374,85)"/>
<path d="M0 0 C6.625 -0.25 6.625 -0.25 10 2 C10 2.66 10 3.32 10 4 C6.7 3.01 3.4 2.02 0 1 C0 0.67 0 0.34 0 0 Z " fill="#E3967C" transform="translate(344,85)"/>
<path d="M0 0 C0.66 0 1.32 0 2 0 C2 2.97 2 5.94 2 9 C-0.474 4.053 -0.474 4.053 -1 1 C-0.67 0.67 -0.34 0.34 0 0 Z " fill="#D56A47" transform="translate(329,284)"/>
<path d="M0 0 C3.367 1.393 4.986 2.979 7 6 C5.188 5.812 5.188 5.812 3 5 C1.25 2.438 1.25 2.438 0 0 Z " fill="#E69C81" transform="translate(241,258)"/>
<path d="M0 0 C0.66 0.66 1.32 1.32 2 2 C1.34 2 0.68 2 0 2 C0 1.34 0 0.68 0 0 Z M3 1 C4.32 2.32 5.64 3.64 7 5 C6.01 5 5.02 5 4 5 C3.34 4.01 2.68 3.02 2 2 C2.33 1.67 2.66 1.34 3 1 Z " fill="#E39377" transform="translate(379,105)"/>
<path d="M0 0 C2.97 1.98 2.97 1.98 6 4 C5.01 4.495 5.01 4.495 4 5 C1.375 3.562 1.375 3.562 -1 2 C-0.67 1.34 -0.34 0.68 0 0 Z " fill="#E59D83" transform="translate(248,278)"/>
<path d="M0 0 C3.27 0.564 4.826 1.5 7 4 C6.01 4.495 6.01 4.495 5 5 C3.35 3.35 1.7 1.7 0 0 Z " fill="#DE8060" transform="translate(248,265)"/>
<path d="M0 0 C1.98 0 3.96 0 6 0 C5.381 0.433 4.762 0.866 4.125 1.312 C1.78 2.997 1.78 2.997 0 6 C0 4.02 0 2.04 0 0 Z " fill="#5B646B" transform="translate(290,306)"/>
<path d="M0 0 C0.99 0 1.98 0 3 0 C3.33 1.98 3.66 3.96 4 6 C3.01 5.67 2.02 5.34 1 5 C0.67 3.35 0.34 1.7 0 0 Z " fill="#E49576" transform="translate(209,207)"/>
<path d="M0 0 C0.66 0.33 1.32 0.66 2 1 C0.35 2.32 -1.3 3.64 -3 5 C-3 4.01 -3 3.02 -3 2 C-2.01 1.34 -1.02 0.68 0 0 Z " fill="#4991BD" transform="translate(319,185)"/>
<path d="M0 0 C0.66 0.66 1.32 1.32 2 2 C0.68 2.99 -0.64 3.98 -2 5 C-1.34 3.35 -0.68 1.7 0 0 Z " fill="#E7AB96" transform="translate(405,224)"/>
<path d="M0 0 C1.875 0.25 1.875 0.25 4 1 C5.25 3.062 5.25 3.062 6 5 C5.34 5 4.68 5 4 5 C4 4.34 4 3.68 4 3 C2.68 2.34 1.36 1.68 0 1 C0 0.67 0 0.34 0 0 Z " fill="#5D9CC4" transform="translate(252,162)"/>
<path d="M0 0 C1.32 0.99 2.64 1.98 4 3 C3.34 4.32 2.68 5.64 2 7 C1.34 4.69 0.68 2.38 0 0 Z " fill="#E79F84" transform="translate(404,138)"/>
<path d="M0 0 C1.32 1.32 2.64 2.64 4 4 C2.68 3.67 1.36 3.34 0 3 C0 2.01 0 1.02 0 0 Z " fill="#D76F4D" transform="translate(375,100)"/>
<path d="M0 0 C0.66 0.33 1.32 0.66 2 1 C0.25 4.875 0.25 4.875 -2 6 C-1.34 4.02 -0.68 2.04 0 0 Z " fill="#E59B80" transform="translate(401,231)"/>
<path d="M0 0 C1.65 0 3.3 0 5 0 C1.25 3 1.25 3 -1 3 C-0.67 2.01 -0.34 1.02 0 0 Z " fill="#414446" transform="translate(304,310)"/>
<path d="M0 0 C1.485 0.99 1.485 0.99 3 2 C3 2.99 3 3.98 3 5 C2.34 5 1.68 5 1 5 C0.67 3.35 0.34 1.7 0 0 Z " fill="#D87454" transform="translate(208,234)"/>
<path d="M0 0 C1.98 0.495 1.98 0.495 4 1 C2.02 1.99 2.02 1.99 0 3 C0 2.01 0 1.02 0 0 Z " fill="#86BEDD" transform="translate(244,234)"/>
<path d="M0 0 C0.33 0.99 0.66 1.98 1 3 C0.34 3.66 -0.32 4.32 -1 5 C-1 4.34 -1 3.68 -1 3 C-1.99 2.67 -2.98 2.34 -4 2 C-2.68 1.34 -1.36 0.68 0 0 Z " fill="#59A0C4" transform="translate(339,222)"/>
<path d="M0 0 C0.99 0.33 1.98 0.66 3 1 C3.33 1.99 3.66 2.98 4 4 C1.525 3.01 1.525 3.01 -1 2 C-0.67 1.34 -0.34 0.68 0 0 Z " fill="#156FAA" transform="translate(301,179)"/>
<path d="M0 0 C0.99 0.33 1.98 0.66 3 1 C1.68 1.99 0.36 2.98 -1 4 C-0.67 2.68 -0.34 1.36 0 0 Z " fill="#488EBB" transform="translate(339,167)"/>
<path d="M0 0 C1.98 0.99 1.98 0.99 4 2 C4 2.66 4 3.32 4 4 C2.68 3.67 1.36 3.34 0 3 C0 2.01 0 1.02 0 0 Z " fill="#DF8363" transform="translate(354,87)"/>
<path d="M0 0 C2.475 0.99 2.475 0.99 5 2 C4.34 2.66 3.68 3.32 3 4 C2.01 2.68 1.02 1.36 0 0 Z " fill="#DE8261" transform="translate(399,110)"/>
<path d="M0 0 C0.33 0.99 0.66 1.98 1 3 C0.34 3.66 -0.32 4.32 -1 5 C-1.33 4.01 -1.66 3.02 -2 2 C-1.34 1.34 -0.68 0.68 0 0 Z " fill="#E8A489" transform="translate(215,143)"/>
<path d="M0 0 C0.66 0.33 1.32 0.66 2 1 C1.01 1.99 0.02 2.98 -1 4 C-1 1 -1 1 0 0 Z " fill="#E8A489" transform="translate(221,131)"/>
<path d="M0 0 C0.99 0.33 1.98 0.66 3 1 C2.67 1.99 2.34 2.98 2 4 C1.34 2.68 0.68 1.36 0 0 Z " fill="#DF8C6F" transform="translate(397,126)"/>
<path d="M0 0 C0.99 0.33 1.98 0.66 3 1 C2.34 1.66 1.68 2.32 1 3 C0.67 2.01 0.34 1.02 0 0 Z " fill="#E9A88F" transform="translate(364,79)"/>
</svg>